{"glyphs":{"0":{"ha":694,"x_min":67,"x_max":633,"o":"m 403 851 q 573 795 513 851 q 633 628 633 739 q 628 563 633 610 l 586 264 q 297 -17 547 -17 q 126 41 185 -17 q 67 207 67 99 q 72 272 67 225 l 114 571 q 403 851 153 851 m 393 751 q 285 710 325 751 q 233 582 246 669 l 189 261 q 186 215 186 244 q 217 117 186 150 q 307 83 249 83 q 415 124 375 83 q 467 253 454 165 l 511 574 q 514 619 514 590 q 483 719 514 686 q 393 751 451 751 z "},"1":{"ha":433,"x_min":49,"x_max":390,"o":"m 390 835 l 274 0 l 156 0 l 256 721 l 253 721 l 57 642 l 49 743 l 286 835 l 390 835 z "},"2":{"ha":538,"x_min":-42,"x_max":508,"o":"m 283 851 q 450 805 392 851 q 508 672 508 758 q 506 632 508 660 l 501 601 q 460 483 493 540 q 349 344 426 425 l 111 99 l 425 99 l 413 0 l -42 0 l -29 86 l 297 442 q 356 521 336 483 q 382 600 375 558 l 386 628 q 389 660 389 650 q 358 731 389 708 q 264 754 326 754 q 81 710 186 754 l 94 817 q 193 842 140 832 q 283 851 246 851 z "},"3":{"ha":538,"x_min":-14,"x_max":496,"o":"m 281 851 q 438 801 379 851 q 496 667 496 750 q 493 632 496 654 l 492 622 q 343 432 471 478 q 426 364 396 411 q 457 256 457 317 q 456 231 457 239 l 454 217 q 372 46 443 108 q 175 -17 300 -17 q 83 -7 138 -17 q -14 19 29 3 l -1 118 q 88 90 38 101 q 175 78 138 78 q 283 111 242 78 q 333 208 324 144 l 338 239 q 339 268 339 249 q 306 355 339 325 q 211 385 274 385 l 88 385 l 101 476 l 225 476 q 328 513 292 476 q 375 622 364 549 l 376 632 q 379 660 379 651 q 350 735 379 710 q 267 761 321 761 q 89 732 206 761 l 103 828 q 281 851 210 851 z "},"4":{"ha":588,"x_min":-35,"x_max":556,"o":"m 550 835 l 471 276 l 556 276 l 543 179 l 458 179 l 433 0 l 318 0 l 343 179 l -35 179 l -24 261 l 415 835 l 550 835 m 417 700 l 104 276 l 357 276 l 360 296 l 417 700 z "},"5":{"ha":613,"x_min":29,"x_max":558,"o":"m 544 739 l 235 739 l 189 464 q 281 513 232 496 q 372 531 329 531 q 550 340 550 531 q 546 276 550 313 l 542 243 q 451 48 524 113 q 246 -17 378 -17 q 135 -6 196 -17 q 29 22 75 6 l 43 125 q 153 96 90 108 q 250 83 215 83 q 424 243 401 83 l 429 281 q 433 325 433 306 q 342 432 433 432 q 246 411 290 432 q 151 342 201 390 l 61 342 l 131 839 l 558 839 l 544 739 z "},"6":{"ha":660,"x_min":64,"x_max":594,"o":"m 410 850 q 505 841 451 850 q 594 822 558 832 l 581 719 q 404 753 465 753 q 313 731 349 753 q 253 655 276 708 q 217 507 229 601 l 208 447 q 309 518 260 496 q 401 540 358 540 q 538 491 489 540 q 586 347 586 442 q 582 288 586 319 l 575 240 q 492 47 557 111 q 303 -17 426 -17 q 125 44 186 -17 q 64 226 64 106 q 71 311 64 260 l 99 506 q 200 771 125 692 q 410 850 275 850 m 372 438 q 286 414 333 438 q 194 347 239 390 l 183 267 q 181 222 181 251 q 213 119 181 156 q 304 83 246 83 q 408 119 372 83 q 456 233 443 154 l 465 292 q 468 328 468 304 q 442 409 468 381 q 372 438 415 438 z "},"7":{"ha":525,"x_min":17,"x_max":568,"o":"m 568 833 l 557 749 l 140 0 l 17 0 l 429 729 l 429 732 l 53 732 l 67 833 l 568 833 z "},"8":{"ha":639,"x_min":25,"x_max":592,"o":"m 372 851 q 531 799 469 851 q 592 658 592 746 q 588 617 592 638 l 586 608 q 548 508 575 547 q 469 443 521 468 q 549 374 522 418 q 575 269 575 329 q 574 236 575 247 l 571 214 q 484 44 557 104 q 282 -17 411 -17 q 93 40 161 -17 q 25 194 25 97 q 28 232 25 207 l 31 253 q 199 456 50 404 q 138 519 160 479 q 117 610 117 560 q 119 647 117 635 l 121 656 q 372 851 154 851 m 365 760 q 278 731 310 760 q 238 642 247 703 l 236 633 q 233 593 233 603 q 260 515 233 539 q 343 490 288 490 q 432 515 404 490 q 472 611 460 540 l 474 619 q 476 656 476 632 q 365 760 476 760 m 318 399 q 203 360 247 399 q 150 251 160 321 l 149 242 q 146 213 146 222 q 183 117 146 151 q 288 82 221 82 q 450 215 431 82 l 454 243 q 457 272 457 263 q 420 365 457 332 q 318 399 383 399 z "},"9":{"ha":660,"x_min":71,"x_max":604,"o":"m 369 850 q 542 791 481 850 q 604 624 604 732 q 600 567 604 596 l 561 281 q 466 53 539 122 q 253 -17 393 -17 q 156 -6 211 -17 q 71 15 101 4 l 85 119 q 172 94 117 106 q 256 83 226 83 q 382 128 338 83 q 442 281 426 172 l 457 386 q 254 293 344 293 q 126 344 172 293 q 81 497 81 396 q 85 561 81 526 l 90 604 q 174 790 107 729 q 369 850 242 850 m 360 750 q 255 717 290 750 q 208 611 219 683 l 200 557 q 197 515 197 542 q 224 426 197 457 q 293 396 250 396 q 471 486 360 396 l 486 588 q 489 622 489 613 q 454 717 489 683 q 360 750 419 750 z "},"\u0000":{"ha":0,"x_min":0,"x_max":0,"o":""},"\r":{"ha":250,"x_min":0,"x_max":0,"o":""}," ":{"ha":250,"x_min":0,"x_max":0,"o":""},"A":{"ha":739,"x_min":-32,"x_max":671,"o":"m 671 0 l 544 0 q 514 211 536 65 l 182 211 q 93 0 135 90 l -32 0 l 357 910 l 503 910 l 671 0 m 415 800 q 226 317 315 535 l 497 317 q 415 800 461 547 z "},"Á":{"ha":739,"x_min":-32,"x_max":671,"o":"m 671 0 l 544 0 q 514 211 536 65 l 182 211 q 93 0 135 90 l -32 0 l 357 910 l 503 910 l 671 0 m 415 800 q 226 317 315 535 l 497 317 q 415 800 461 547 m 479 986 l 382 986 l 490 1151 l 614 1151 l 479 986 z "},"Ă":{"ha":739,"x_min":-32,"x_max":671,"o":"m 671 0 l 544 0 q 514 211 536 65 l 182 211 q 93 0 135 90 l -32 0 l 357 910 l 503 910 l 671 0 m 415 800 q 226 317 315 535 l 497 317 q 415 800 461 547 m 631 1044 q 594 1024 624 1039 q 519 994 564 1008 q 431 979 475 979 q 341 994 383 979 q 270 1026 299 1008 q 242 1044 242 1043 l 254 1153 q 285 1132 254 1151 q 357 1096 315 1113 q 442 1079 399 1079 q 529 1096 485 1079 q 604 1130 574 1113 q 643 1153 635 1147 l 631 1044 z "},"Â":{"ha":739,"x_min":-32,"x_max":671,"o":"m 671 0 l 544 0 q 514 211 536 65 l 182 211 q 93 0 135 90 l -32 0 l 357 910 l 503 910 l 671 0 m 415 800 q 226 317 315 535 l 497 317 q 415 800 461 547 m 243 988 l 253 1082 l 457 1167 l 642 1082 l 632 988 l 444 1056 l 243 988 z "},"Ä":{"ha":739,"x_min":-32,"x_max":671,"o":"m 671 0 l 544 0 q 514 211 536 65 l 182 211 q 93 0 135 90 l -32 0 l 357 910 l 503 910 l 671 0 m 415 800 q 226 317 315 535 l 497 317 q 415 800 461 547 m 396 1044 q 376 1001 393 1015 q 321 986 358 986 q 263 1004 285 986 q 244 1051 240 1022 l 250 1090 q 272 1135 254 1121 q 326 1150 290 1150 q 383 1133 364 1150 q 401 1085 403 1115 l 396 1044 m 635 1044 q 560 986 631 986 q 501 1004 522 986 q 483 1051 479 1022 l 489 1090 q 511 1136 493 1122 q 565 1150 529 1150 q 622 1133 603 1150 q 640 1085 642 1115 l 635 1044 z "},"À":{"ha":739,"x_min":-32,"x_max":671,"o":"m 671 0 l 544 0 q 514 211 536 65 l 182 211 q 93 0 135 90 l -32 0 l 357 910 l 503 910 l 671 0 m 415 800 q 226 317 315 535 l 497 317 q 415 800 461 547 m 285 1151 l 408 1151 l 483 986 l 386 986 l 285 1151 z "},"Ā":{"ha":739,"x_min":-32,"x_max":671,"o":"m 671 0 l 544 0 q 514 211 536 65 l 182 211 q 93 0 135 90 l -32 0 l 357 910 l 503 910 l 671 0 m 415 800 q 226 317 315 535 l 497 317 q 415 800 461 547 m 272 986 l 286 1090 l 613 1090 l 599 986 l 272 986 z "},"Ą":{"ha":739,"x_min":-32,"x_max":671,"o":"m 671 0 l 639 0 q 574 -52 599 -19 q 544 -121 550 -85 l 543 -135 q 542 -147 542 -139 q 554 -177 542 -168 q 594 -186 567 -186 q 640 -182 615 -186 l 629 -267 q 561 -274 597 -274 q 469 -249 500 -274 q 438 -181 438 -224 q 439 -161 438 -168 l 442 -143 q 475 -64 447 -103 q 544 1 503 -25 q 514 211 536 76 l 182 211 q 93 0 124 69 l -32 0 l 357 910 l 503 910 l 671 0 m 415 800 q 226 317 315 535 l 497 317 q 415 800 461 547 z "},"Å":{"ha":739,"x_min":-32,"x_max":671,"o":"m 458 1108 q 565 1074 524 1108 q 607 985 607 1040 q 583 901 607 938 q 514 850 558 865 l 671 0 l 544 0 l 538 49 q 514 211 524 157 l 182 211 q 93 0 124 69 l -32 0 l 339 869 q 306 910 318 886 q 293 964 293 935 q 337 1069 293 1031 q 458 1108 381 1108 m 456 1038 q 397 1022 414 1038 q 379 969 379 1006 q 447 910 379 911 q 506 927 489 910 q 522 982 522 944 q 505 1023 522 1008 q 456 1038 488 1038 m 415 800 q 226 317 315 535 l 497 317 q 415 800 461 547 z "},"Ã":{"ha":739,"x_min":-32,"x_max":671,"o":"m 671 0 l 544 0 q 514 211 536 65 l 182 211 q 93 0 135 90 l -32 0 l 357 910 l 503 910 l 671 0 m 415 800 q 226 317 315 535 l 497 317 q 415 800 461 547 m 636 1028 q 616 1015 632 1025 q 574 995 600 1004 q 519 986 547 986 q 433 1004 485 986 q 354 1021 383 1021 q 308 1013 333 1021 q 265 997 283 1006 q 242 986 247 989 l 251 1083 q 272 1097 256 1086 q 313 1116 288 1107 q 367 1125 339 1125 q 465 1106 410 1125 q 533 1090 506 1090 q 578 1098 554 1090 q 621 1114 603 1106 q 644 1125 639 1122 l 636 1028 z "},"Æ":{"ha":1057,"x_min":-64,"x_max":1028,"o":"m 1028 910 l 1014 803 l 653 803 l 618 515 l 951 515 l 938 410 l 604 410 l 567 107 l 928 107 l 917 0 l 438 0 l 463 211 l 192 211 l 64 0 l -64 0 l 475 910 l 1028 910 m 538 822 q 254 317 419 600 l 476 317 l 538 822 z "},"B":{"ha":733,"x_min":53,"x_max":685,"o":"m 167 919 q 394 926 315 926 q 610 869 535 926 q 685 718 685 811 l 683 699 l 682 683 q 518 472 667 521 q 626 403 586 454 q 667 281 667 351 q 664 247 667 269 l 661 226 q 561 46 644 108 q 322 -17 478 -17 q 53 -4 217 -17 l 167 919 m 376 510 q 506 551 458 510 q 561 667 553 593 l 563 679 q 564 703 564 688 q 519 795 564 765 q 379 825 475 825 q 272 821 333 825 l 233 510 l 376 510 m 182 94 q 319 86 265 86 q 481 124 428 86 q 546 240 533 163 l 549 258 q 551 286 551 278 q 504 381 551 347 q 365 414 457 414 l 221 414 l 182 94 z "},"C":{"ha":661,"x_min":78,"x_max":628,"o":"m 421 926 q 523 917 467 926 q 628 893 579 908 l 613 782 q 512 813 564 801 q 418 824 460 824 q 244 651 264 824 l 199 269 q 196 222 196 236 q 229 122 196 153 q 335 92 263 92 q 543 144 425 92 l 532 33 q 426 -3 488 11 q 317 -17 364 -17 q 138 41 197 -17 q 78 218 78 99 q 82 288 78 250 l 125 643 q 217 857 143 788 q 421 926 290 926 z "},"Ć":{"ha":661,"x_min":78,"x_max":628,"o":"m 421 926 q 523 917 467 926 q 628 893 579 908 l 613 782 q 512 813 564 801 q 418 824 460 824 q 244 651 264 824 l 199 269 q 196 222 196 236 q 229 122 196 153 q 335 92 263 92 q 543 144 425 92 l 532 33 q 426 -3 488 11 q 317 -17 364 -17 q 138 41 197 -17 q 78 218 78 99 q 82 288 78 250 l 125 643 q 217 857 143 788 q 421 926 290 926 m 472 986 l 375 986 l 483 1151 l 607 1151 l 472 986 z "},"Č":{"ha":661,"x_min":78,"x_max":636,"o":"m 421 926 q 523 917 467 926 q 628 893 579 908 l 613 782 q 512 813 564 801 q 418 824 460 824 q 244 651 264 824 l 199 269 q 196 222 196 236 q 229 122 196 153 q 335 92 263 92 q 543 144 425 92 l 532 33 q 426 -3 488 11 q 317 -17 364 -17 q 138 41 197 -17 q 78 218 78 99 q 82 288 78 250 l 125 643 q 217 857 143 788 q 421 926 290 926 m 435 1100 l 636 1168 l 625 1074 l 422 989 l 236 1074 l 247 1168 l 435 1100 z "},"Ç":{"ha":661,"x_min":78,"x_max":628,"o":"m 421 926 q 523 917 467 926 q 628 893 579 908 l 613 782 q 512 813 564 801 q 418 824 460 824 q 244 651 264 824 l 199 269 q 196 222 196 236 q 229 122 196 153 q 335 92 263 92 q 543 144 425 92 l 532 33 q 376 -12 468 1 l 357 -57 l 360 -57 q 417 -80 396 -57 q 439 -140 439 -103 l 438 -156 l 436 -168 q 304 -274 424 -274 q 222 -261 265 -274 l 232 -185 q 294 -199 264 -199 q 328 -190 317 -199 q 343 -167 340 -181 l 344 -157 q 335 -123 347 -135 q 297 -111 324 -111 l 261 -111 l 265 -83 l 297 -17 q 78 219 78 -8 q 82 288 78 253 l 125 643 q 217 857 143 788 q 421 926 290 926 z "},"D":{"ha":796,"x_min":54,"x_max":724,"o":"m 168 919 q 404 926 265 926 q 641 845 558 926 q 724 618 724 764 q 719 549 724 585 l 690 318 q 574 67 669 151 q 300 -17 478 -17 q 54 -4 182 -17 l 168 919 m 183 94 q 311 85 260 85 q 488 145 418 85 q 572 315 558 206 l 603 558 q 607 614 607 588 q 551 772 607 718 q 396 826 496 826 l 274 824 l 183 94 z "},"Ð":{"ha":800,"x_min":13,"x_max":728,"o":"m 408 926 q 645 845 563 926 q 728 618 728 764 q 724 549 728 585 l 694 318 q 578 68 674 153 q 304 -17 483 -17 q 58 -4 186 -17 l 110 421 l 13 421 l 26 518 l 122 518 l 172 919 q 408 926 269 926 m 278 824 l 239 518 l 429 518 l 415 421 l 228 421 l 188 94 q 315 85 264 85 q 492 145 422 85 q 576 315 563 206 l 607 558 q 611 614 611 588 q 556 772 611 718 q 400 826 500 826 l 278 824 z "},"Ď":{"ha":796,"x_min":54,"x_max":724,"o":"m 168 919 q 404 926 265 926 q 641 845 558 926 q 724 618 724 764 q 719 549 724 585 l 690 318 q 574 67 669 151 q 300 -17 478 -17 q 54 -4 182 -17 l 168 919 m 183 94 q 311 85 260 85 q 488 145 418 85 q 572 315 558 206 l 603 558 q 607 614 607 588 q 551 772 607 718 q 396 826 496 826 l 274 824 l 183 94 m 436 1100 l 638 1168 l 626 1074 l 424 989 l 238 1074 l 249 1168 l 436 1100 z "},"Đ":{"ha":800,"x_min":13,"x_max":728,"o":"m 408 926 q 645 845 563 926 q 728 618 728 764 q 724 549 728 585 l 694 318 q 578 68 674 153 q 304 -17 483 -17 q 58 -4 186 -17 l 110 421 l 13 421 l 26 518 l 122 518 l 172 919 q 408 926 269 926 m 278 824 l 239 518 l 429 518 l 415 421 l 228 421 l 188 94 q 315 85 264 85 q 492 145 422 85 q 576 315 563 206 l 607 558 q 611 614 611 588 q 556 772 611 718 q 400 826 500 826 l 278 824 z "},"E":{"ha":674,"x_min":54,"x_max":644,"o":"m 54 0 l 165 910 l 644 910 l 631 803 l 269 803 l 235 515 l 568 515 l 554 410 l 221 410 l 183 107 l 544 107 l 533 0 l 54 0 z "},"É":{"ha":674,"x_min":54,"x_max":644,"o":"m 54 0 l 165 910 l 644 910 l 631 803 l 269 803 l 235 515 l 568 515 l 554 410 l 221 410 l 183 107 l 544 107 l 533 0 l 54 0 m 456 986 l 358 986 l 467 1151 l 590 1151 l 456 986 z "},"Ě":{"ha":674,"x_min":54,"x_max":644,"o":"m 54 0 l 165 910 l 644 910 l 631 803 l 269 803 l 235 515 l 568 515 l 554 410 l 221 410 l 183 107 l 544 107 l 533 0 l 54 0 m 418 1100 l 619 1168 l 608 1074 l 406 989 l 219 1074 l 231 1168 l 418 1100 z "},"Ê":{"ha":674,"x_min":54,"x_max":644,"o":"m 54 0 l 165 910 l 644 910 l 631 803 l 269 803 l 235 515 l 568 515 l 554 410 l 221 410 l 183 107 l 544 107 l 533 0 l 54 0 m 219 988 l 229 1082 l 433 1167 l 618 1082 l 608 988 l 421 1056 l 219 988 z "},"Ë":{"ha":674,"x_min":54,"x_max":644,"o":"m 54 0 l 165 910 l 644 910 l 631 803 l 269 803 l 235 515 l 568 515 l 554 410 l 221 410 l 183 107 l 544 107 l 533 0 l 54 0 m 372 1044 q 352 1001 369 1015 q 297 986 335 986 q 239 1004 261 986 q 221 1051 217 1022 l 226 1090 q 249 1135 231 1121 q 303 1150 267 1150 q 360 1133 340 1150 q 378 1085 379 1115 l 372 1044 m 611 1044 q 536 986 607 986 q 477 1004 499 986 q 460 1051 456 1022 l 465 1090 q 488 1136 469 1122 q 542 1150 506 1150 q 599 1133 579 1150 q 617 1085 618 1115 l 611 1044 z "},"Ė":{"ha":674,"x_min":54,"x_max":644,"o":"m 54 0 l 165 910 l 644 910 l 631 803 l 269 803 l 235 515 l 568 515 l 554 410 l 221 410 l 183 107 l 544 107 l 533 0 l 54 0 m 493 1043 q 472 999 492 1013 q 415 985 453 985 q 356 1003 378 985 q 339 1051 335 1022 l 344 1092 q 367 1137 349 1122 q 422 1151 386 1151 q 481 1133 460 1151 q 499 1083 501 1115 l 493 1043 z "},"È":{"ha":674,"x_min":54,"x_max":644,"o":"m 54 0 l 165 910 l 644 910 l 631 803 l 269 803 l 235 515 l 568 515 l 554 410 l 221 410 l 183 107 l 544 107 l 533 0 l 54 0 m 261 1151 l 385 1151 l 460 986 l 363 986 l 261 1151 z "},"Ē":{"ha":674,"x_min":54,"x_max":644,"o":"m 54 0 l 165 910 l 644 910 l 631 803 l 269 803 l 235 515 l 568 515 l 554 410 l 221 410 l 183 107 l 544 107 l 533 0 l 54 0 m 249 986 l 263 1090 l 589 1090 l 575 986 l 249 986 z "},"Ę":{"ha":674,"x_min":54,"x_max":644,"o":"m 631 803 l 269 803 l 235 515 l 568 515 l 554 410 l 221 410 l 183 107 l 544 107 l 533 0 l 443 0 q 378 -52 403 -19 q 349 -121 354 -85 l 347 -135 q 346 -147 346 -139 q 358 -177 346 -168 q 399 -186 371 -186 q 444 -182 419 -186 l 433 -267 q 365 -274 401 -274 q 273 -249 304 -274 q 242 -181 242 -224 q 243 -161 242 -168 l 246 -143 q 278 -65 251 -104 q 346 0 306 -26 l 54 0 l 165 910 l 644 910 l 631 803 z "},"F":{"ha":644,"x_min":54,"x_max":644,"o":"m 644 910 l 631 803 l 269 803 l 235 515 l 507 515 l 493 410 l 221 410 l 172 0 l 54 0 l 165 910 l 644 910 z "},"G":{"ha":771,"x_min":78,"x_max":690,"o":"m 351 -17 q 148 48 218 -17 q 78 232 78 113 q 82 289 78 260 l 125 646 q 217 858 142 789 q 439 926 292 926 q 566 915 494 926 q 690 886 638 903 l 676 778 q 553 812 619 799 q 433 825 488 825 q 300 785 346 825 q 243 654 254 744 l 196 268 q 193 232 193 243 q 235 124 193 160 q 356 88 276 88 q 519 118 443 88 l 556 414 l 381 414 l 396 525 l 688 525 l 631 63 q 491 6 567 29 q 351 -17 415 -17 z "},"Ğ":{"ha":771,"x_min":78,"x_max":690,"o":"m 351 -17 q 148 48 218 -17 q 78 232 78 113 q 82 289 78 260 l 125 646 q 217 858 142 789 q 439 926 292 926 q 566 915 494 926 q 690 886 638 903 l 676 778 q 553 812 619 799 q 433 825 488 825 q 300 785 346 825 q 243 654 254 744 l 196 268 q 193 232 193 243 q 235 124 193 160 q 356 88 276 88 q 519 118 443 88 l 556 414 l 381 414 l 396 525 l 688 525 l 631 63 q 491 6 567 29 q 351 -17 415 -17 m 640 1044 q 603 1024 633 1039 q 529 994 574 1008 q 440 979 485 979 q 351 994 393 979 q 280 1026 308 1008 q 251 1044 251 1043 l 264 1153 q 294 1132 264 1151 q 367 1096 325 1113 q 451 1079 408 1079 q 539 1096 494 1079 q 614 1130 583 1113 q 653 1153 644 1147 l 640 1044 z "},"Ģ":{"ha":771,"x_min":78,"x_max":690,"o":"m 351 -17 q 148 48 218 -17 q 78 232 78 113 q 82 289 78 260 l 125 646 q 217 858 142 789 q 439 926 292 926 q 566 915 494 926 q 690 886 638 903 l 676 778 q 553 812 619 799 q 433 825 488 825 q 300 785 346 825 q 243 654 254 744 l 196 268 q 193 232 193 243 q 235 124 193 160 q 356 88 276 88 q 519 118 443 88 l 556 414 l 381 414 l 396 525 l 688 525 l 631 63 q 491 6 567 29 q 351 -17 415 -17 m 424 -169 q 403 -232 418 -199 l 364 -314 l 292 -314 l 328 -215 q 293 -169 293 -203 l 294 -157 l 299 -129 q 317 -90 303 -103 q 363 -78 332 -78 q 412 -91 394 -78 q 429 -128 429 -104 q 428 -142 429 -137 l 424 -169 z "},"H":{"ha":806,"x_min":54,"x_max":763,"o":"m 533 0 l 583 417 l 222 417 l 172 0 l 54 0 l 165 910 l 283 910 l 235 522 l 596 522 l 644 910 l 763 910 l 651 0 l 533 0 z "},"I":{"ha":326,"x_min":54,"x_max":283,"o":"m 54 0 l 165 910 l 283 910 l 172 0 l 54 0 z "},"Í":{"ha":326,"x_min":54,"x_max":410,"o":"m 54 0 l 165 910 l 283 910 l 172 0 l 54 0 m 275 986 l 178 986 l 286 1151 l 410 1151 l 275 986 z "},"Î":{"ha":326,"x_min":39,"x_max":438,"o":"m 54 0 l 165 910 l 283 910 l 172 0 l 54 0 m 39 988 l 49 1082 l 253 1167 l 438 1082 l 428 988 l 240 1056 l 39 988 z "},"Ï":{"ha":326,"x_min":40,"x_max":436,"o":"m 54 0 l 165 910 l 283 910 l 172 0 l 54 0 m 192 1044 q 172 1001 189 1015 q 117 986 154 986 q 58 1004 81 986 q 40 1051 36 1022 l 46 1090 q 68 1135 50 1121 q 122 1150 86 1150 q 179 1133 160 1150 q 197 1085 199 1115 l 192 1044 m 431 1044 q 356 986 426 986 q 297 1004 318 986 q 279 1051 275 1022 l 285 1090 q 307 1136 289 1122 q 361 1150 325 1150 q 418 1133 399 1150 q 436 1085 438 1115 l 431 1044 z "},"İ":{"ha":326,"x_min":54,"x_max":318,"o":"m 54 0 l 165 910 l 283 910 l 172 0 l 54 0 m 313 1043 q 292 999 311 1013 q 235 985 272 985 q 176 1003 197 985 q 158 1051 154 1022 l 164 1092 q 187 1137 168 1122 q 242 1151 206 1151 q 300 1133 279 1151 q 318 1083 321 1115 l 313 1043 z "},"Ì":{"ha":326,"x_min":54,"x_max":283,"o":"m 54 0 l 165 910 l 283 910 l 172 0 l 54 0 m 81 1151 l 204 1151 l 279 986 l 182 986 l 81 1151 z "},"Ī":{"ha":326,"x_min":54,"x_max":408,"o":"m 54 0 l 165 910 l 283 910 l 172 0 l 54 0 m 68 986 l 82 1090 l 408 1090 l 394 986 l 68 986 z "},"Į":{"ha":326,"x_min":-58,"x_max":283,"o":"m 172 0 l 143 0 q 78 -52 103 -19 q 49 -121 54 -85 l 47 -135 q 46 -147 46 -139 q 58 -177 46 -168 q 99 -186 71 -186 q 144 -182 119 -186 l 133 -267 q 65 -274 103 -274 q -27 -249 4 -274 q -58 -181 -58 -224 q -57 -161 -58 -168 l -54 -143 q -19 -61 -49 -101 q 54 4 10 -21 l 165 910 l 283 910 l 172 0 z "},"J":{"ha":399,"x_min":-58,"x_max":356,"o":"m 267 190 q 206 31 253 78 q 69 -17 160 -17 q 4 -10 44 -17 q -58 3 -36 -4 l -46 104 q 60 85 10 85 q 122 107 101 85 q 149 186 142 129 l 238 910 l 356 910 l 267 190 z "},"K":{"ha":729,"x_min":54,"x_max":754,"o":"m 165 910 l 283 910 l 232 489 q 610 910 465 726 l 754 910 l 354 469 l 679 0 l 529 0 q 373 246 440 144 q 228 451 306 347 l 172 0 l 54 0 l 165 910 z "},"Ķ":{"ha":729,"x_min":54,"x_max":754,"o":"m 165 910 l 283 910 l 232 489 q 610 910 465 726 l 754 910 l 354 469 l 679 0 l 529 0 q 373 246 440 144 q 228 451 306 347 l 172 0 l 54 0 l 165 910 m 394 -169 q 374 -232 389 -199 l 335 -314 l 263 -314 l 299 -215 q 264 -169 264 -203 l 265 -157 l 269 -129 q 288 -90 274 -103 q 333 -78 303 -78 q 383 -91 365 -78 q 400 -128 400 -104 q 399 -142 400 -137 l 394 -169 z "},"L":{"ha":625,"x_min":54,"x_max":544,"o":"m 54 0 l 165 910 l 283 910 l 183 104 l 544 104 l 533 0 l 54 0 z "},"Ĺ":{"ha":625,"x_min":54,"x_max":544,"o":"m 54 0 l 165 910 l 283 910 l 183 104 l 544 104 l 533 0 l 54 0 m 281 986 l 183 986 l 292 1151 l 415 1151 l 281 986 z "},"Ľ":{"ha":625,"x_min":54,"x_max":544,"o":"m 54 0 l 165 910 l 283 910 l 183 104 l 544 104 l 533 0 l 54 0 m 493 835 q 472 772 488 806 l 433 690 l 361 690 l 397 789 q 363 835 363 801 l 364 847 l 368 875 q 387 914 372 901 q 432 926 401 926 q 481 913 464 926 q 499 876 499 900 q 497 863 499 867 l 493 835 z "},"Ļ":{"ha":625,"x_min":54,"x_max":544,"o":"m 54 0 l 165 910 l 283 910 l 183 104 l 544 104 l 533 0 l 54 0 m 371 -169 q 350 -232 365 -199 l 311 -314 l 239 -314 l 275 -215 q 240 -169 240 -203 l 242 -157 l 246 -129 q 265 -90 250 -103 q 310 -78 279 -78 q 359 -91 342 -78 q 376 -128 376 -104 q 375 -142 376 -137 l 371 -169 z "},"Ł":{"ha":629,"x_min":10,"x_max":549,"o":"m 25 478 l 126 504 l 183 910 l 301 910 l 249 538 l 436 589 l 421 483 l 233 432 l 188 104 l 549 104 l 535 0 l 56 0 l 111 399 l 10 372 l 25 478 z "},"M":{"ha":971,"x_min":47,"x_max":926,"o":"m 824 0 l 707 0 l 789 743 l 515 94 l 371 94 l 260 740 l 164 0 l 47 0 l 167 910 l 335 910 q 451 203 415 506 q 742 910 600 529 l 926 910 l 824 0 z "},"N":{"ha":808,"x_min":54,"x_max":765,"o":"m 264 772 l 171 0 l 54 0 l 165 910 l 339 910 q 554 139 461 515 l 649 910 l 765 910 l 654 0 l 481 0 l 264 772 z "},"Ń":{"ha":808,"x_min":54,"x_max":765,"o":"m 264 772 l 171 0 l 54 0 l 165 910 l 339 910 q 554 139 461 515 l 649 910 l 765 910 l 654 0 l 481 0 l 264 772 m 531 986 l 433 986 l 542 1151 l 665 1151 l 531 986 z "},"Ň":{"ha":808,"x_min":54,"x_max":765,"o":"m 264 772 l 171 0 l 54 0 l 165 910 l 339 910 q 554 139 461 515 l 649 910 l 765 910 l 654 0 l 481 0 l 264 772 m 493 1100 l 694 1168 l 683 1074 l 481 989 l 294 1074 l 306 1168 l 493 1100 z "},"Ņ":{"ha":808,"x_min":54,"x_max":765,"o":"m 264 772 l 171 0 l 54 0 l 165 910 l 339 910 q 554 139 461 515 l 649 910 l 765 910 l 654 0 l 481 0 l 264 772 m 418 -169 q 397 -232 413 -199 l 358 -314 l 286 -314 l 322 -215 q 288 -169 288 -203 l 289 -157 l 293 -129 q 312 -90 297 -103 q 357 -78 326 -78 q 406 -91 389 -78 q 424 -128 424 -104 q 422 -142 424 -137 l 418 -169 z "},"Ñ":{"ha":808,"x_min":54,"x_max":765,"o":"m 264 772 l 171 0 l 54 0 l 165 910 l 339 910 q 554 139 461 515 l 649 910 l 765 910 l 654 0 l 481 0 l 264 772 m 688 1028 q 667 1015 683 1025 q 625 995 651 1004 q 571 986 599 986 q 485 1004 536 986 q 406 1021 435 1021 q 360 1013 385 1021 q 317 997 335 1006 q 293 986 299 989 l 303 1083 q 323 1097 307 1086 q 365 1116 339 1107 q 418 1125 390 1125 q 517 1106 461 1125 q 585 1090 557 1090 q 630 1098 606 1090 q 672 1114 654 1106 q 696 1125 690 1122 l 688 1028 z "},"O":{"ha":800,"x_min":76,"x_max":732,"o":"m 454 926 q 659 860 586 926 q 732 672 732 793 q 729 621 732 639 l 686 275 q 356 -17 650 -17 q 148 49 219 -17 q 76 235 76 114 q 81 289 76 260 l 124 635 q 222 856 143 785 q 454 926 301 926 m 446 822 q 242 646 263 822 l 197 274 q 194 238 194 249 q 238 126 194 164 q 363 88 282 88 q 567 265 544 88 l 613 636 q 615 674 615 661 q 572 785 615 747 q 446 822 529 822 z "},"Ó":{"ha":800,"x_min":76,"x_max":732,"o":"m 454 926 q 659 860 586 926 q 732 672 732 793 q 729 621 732 639 l 686 275 q 356 -17 650 -17 q 148 49 219 -17 q 76 235 76 114 q 81 289 76 260 l 124 635 q 222 856 143 785 q 454 926 301 926 m 446 822 q 242 646 263 822 l 197 274 q 194 238 194 249 q 238 126 194 164 q 363 88 282 88 q 567 265 544 88 l 613 636 q 615 674 615 661 q 572 785 615 747 q 446 822 529 822 m 500 986 l 403 986 l 511 1151 l 635 1151 l 500 986 z "},"Ô":{"ha":800,"x_min":76,"x_max":732,"o":"m 454 926 q 659 860 586 926 q 732 672 732 793 q 729 621 732 639 l 686 275 q 356 -17 650 -17 q 148 49 219 -17 q 76 235 76 114 q 81 289 76 260 l 124 635 q 222 856 143 785 q 454 926 301 926 m 446 822 q 242 646 263 822 l 197 274 q 194 238 194 249 q 238 126 194 164 q 363 88 282 88 q 567 265 544 88 l 613 636 q 615 674 615 661 q 572 785 615 747 q 446 822 529 822 m 264 988 l 274 1082 l 478 1167 l 663 1082 l 653 988 l 465 1056 l 264 988 z "},"Ö":{"ha":800,"x_min":76,"x_max":732,"o":"m 454 926 q 659 860 586 926 q 732 672 732 793 q 729 621 732 639 l 686 275 q 356 -17 650 -17 q 148 49 219 -17 q 76 235 76 114 q 81 289 76 260 l 124 635 q 222 856 143 785 q 454 926 301 926 m 446 822 q 242 646 263 822 l 197 274 q 194 238 194 249 q 238 126 194 164 q 363 88 282 88 q 567 265 544 88 l 613 636 q 615 674 615 661 q 572 785 615 747 q 446 822 529 822 m 417 1044 q 397 1001 414 1015 q 342 986 379 986 q 283 1004 306 986 q 265 1051 261 1022 l 271 1090 q 293 1135 275 1121 q 347 1150 311 1150 q 404 1133 385 1150 q 422 1085 424 1115 l 417 1044 m 656 1044 q 581 986 651 986 q 522 1004 543 986 q 504 1051 500 1022 l 510 1090 q 532 1136 514 1122 q 586 1150 550 1150 q 643 1133 624 1150 q 661 1085 663 1115 l 656 1044 z "},"Ò":{"ha":800,"x_min":76,"x_max":732,"o":"m 454 926 q 659 860 586 926 q 732 672 732 793 q 729 621 732 639 l 686 275 q 356 -17 650 -17 q 148 49 219 -17 q 76 235 76 114 q 81 289 76 260 l 124 635 q 222 856 143 785 q 454 926 301 926 m 446 822 q 242 646 263 822 l 197 274 q 194 238 194 249 q 238 126 194 164 q 363 88 282 88 q 567 265 544 88 l 613 636 q 615 674 615 661 q 572 785 615 747 q 446 822 529 822 m 306 1151 l 429 1151 l 504 986 l 407 986 l 306 1151 z "},"Ő":{"ha":800,"x_min":76,"x_max":732,"o":"m 454 926 q 659 860 586 926 q 732 672 732 793 q 729 621 732 639 l 686 275 q 356 -17 650 -17 q 148 49 219 -17 q 76 235 76 114 q 81 289 76 260 l 124 635 q 222 856 143 785 q 454 926 301 926 m 446 822 q 242 646 263 822 l 197 274 q 194 238 194 249 q 238 126 194 164 q 363 88 282 88 q 567 265 544 88 l 613 636 q 615 674 615 661 q 572 785 615 747 q 446 822 529 822 m 379 986 l 275 986 l 375 1151 l 486 1151 l 379 986 m 574 986 l 469 986 l 569 1151 l 681 1151 l 574 986 z "},"Ō":{"ha":800,"x_min":76,"x_max":732,"o":"m 454 926 q 659 860 586 926 q 732 672 732 793 q 729 621 732 639 l 686 275 q 356 -17 650 -17 q 148 49 219 -17 q 76 235 76 114 q 81 289 76 260 l 124 635 q 222 856 143 785 q 454 926 301 926 m 446 822 q 242 646 263 822 l 197 274 q 194 238 194 249 q 238 126 194 164 q 363 88 282 88 q 567 265 544 88 l 613 636 q 615 674 615 661 q 572 785 615 747 q 446 822 529 822 m 293 986 l 307 1090 l 633 1090 l 619 986 l 293 986 z "},"Ø":{"ha":800,"x_min":-21,"x_max":836,"o":"m 706 799 q 732 672 732 746 q 729 621 732 639 l 686 275 q 587 56 668 129 q 356 -17 506 -17 q 175 28 246 -17 l 103 -69 l -21 -69 l 104 104 q 76 232 76 157 q 81 289 76 260 l 124 635 q 222 856 143 785 q 454 926 301 926 q 639 875 568 926 l 713 979 l 836 979 l 706 799 m 446 822 q 242 646 263 822 l 197 274 q 194 221 193 242 l 579 778 q 446 822 538 822 m 235 128 q 363 88 276 88 q 567 265 544 88 l 613 636 q 614 676 614 650 l 235 128 z "},"Õ":{"ha":800,"x_min":76,"x_max":732,"o":"m 454 926 q 659 860 586 926 q 732 672 732 793 q 729 621 732 639 l 686 275 q 356 -17 650 -17 q 148 49 219 -17 q 76 235 76 114 q 81 289 76 260 l 124 635 q 222 856 143 785 q 454 926 301 926 m 446 822 q 242 646 263 822 l 197 274 q 194 238 194 249 q 238 126 194 164 q 363 88 282 88 q 567 265 544 88 l 613 636 q 615 674 615 661 q 572 785 615 747 q 446 822 529 822 m 657 1028 q 637 1015 653 1025 q 594 995 621 1004 q 540 986 568 986 q 454 1004 506 986 q 375 1021 404 1021 q 329 1013 354 1021 q 286 997 304 1006 q 263 986 268 989 l 272 1083 q 292 1097 276 1086 q 334 1116 308 1107 q 388 1125 360 1125 q 486 1106 431 1125 q 554 1090 526 1090 q 599 1098 575 1090 q 642 1114 624 1106 q 665 1125 660 1122 l 657 1028 z "},"Œ":{"ha":1072,"x_min":76,"x_max":1043,"o":"m 444 926 q 572 910 506 926 l 1043 910 l 1029 803 l 668 803 l 633 515 l 967 515 l 953 410 l 619 410 l 582 107 l 943 107 l 932 0 l 453 0 q 339 -17 401 -17 q 142 49 208 -17 q 76 228 76 114 q 82 293 76 249 l 131 639 q 444 926 172 926 m 444 824 q 250 653 275 824 l 199 281 q 196 242 196 253 q 238 129 196 169 q 356 89 279 89 q 465 110 419 89 l 550 804 q 444 824 497 824 z "},"P":{"ha":708,"x_min":54,"x_max":697,"o":"m 392 926 q 617 865 538 926 q 697 693 697 803 q 693 646 697 671 l 690 626 q 588 437 672 503 q 360 371 504 371 q 218 389 313 371 l 172 0 l 54 0 l 167 919 q 392 926 289 926 m 388 828 q 272 825 331 828 l 229 482 q 357 468 304 468 q 505 508 453 468 q 572 633 557 549 l 575 649 q 578 686 578 661 q 529 790 578 753 q 388 828 481 828 z "},"Þ":{"ha":697,"x_min":54,"x_max":685,"o":"m 276 743 q 389 746 357 746 q 610 685 535 746 q 685 515 685 625 q 681 465 685 490 l 678 444 q 342 190 635 190 q 201 206 286 190 l 172 0 l 54 0 l 182 910 l 300 910 l 276 743 m 378 647 q 263 644 321 647 l 214 301 q 340 289 290 289 q 493 331 440 289 q 561 461 546 374 l 564 478 q 567 511 567 500 q 519 612 567 576 q 378 647 472 647 z "},"Q":{"ha":800,"x_min":76,"x_max":732,"o":"m 454 926 q 659 859 586 926 q 732 674 732 792 q 729 621 732 639 l 686 275 q 546 26 663 94 l 679 -8 l 668 -118 l 642 -118 l 383 -15 q 356 -17 374 -17 q 148 49 219 -17 q 76 233 76 115 q 81 289 76 260 l 124 635 q 222 856 143 785 q 454 926 301 926 m 446 822 q 242 646 263 822 l 197 274 q 194 238 194 249 q 238 126 194 164 q 363 88 281 88 q 567 265 544 88 l 613 636 q 615 672 615 661 q 446 822 615 822 z "},"R":{"ha":750,"x_min":54,"x_max":696,"o":"m 401 926 q 618 864 540 926 q 696 701 696 801 q 693 663 696 688 l 689 635 q 624 497 678 557 q 489 411 571 438 l 679 0 l 544 0 q 444 242 479 161 q 368 396 408 322 q 221 407 297 396 l 172 0 l 54 0 l 167 919 q 401 926 296 926 m 272 825 l 232 497 q 354 489 306 489 q 572 646 546 489 l 574 654 q 576 690 576 679 q 530 792 576 757 q 392 828 483 828 l 272 825 z "},"Ŕ":{"ha":750,"x_min":54,"x_max":696,"o":"m 401 926 q 618 864 540 926 q 696 701 696 801 q 693 663 696 688 l 689 635 q 624 497 678 557 q 489 411 571 438 l 679 0 l 544 0 q 444 242 479 161 q 368 396 408 322 q 221 407 297 396 l 172 0 l 54 0 l 167 919 q 401 926 296 926 m 272 825 l 232 497 q 354 489 306 489 q 572 646 546 489 l 574 654 q 576 690 576 679 q 530 792 576 757 q 392 828 483 828 l 272 825 m 457 986 l 360 986 l 468 1151 l 592 1151 l 457 986 z "},"Ř":{"ha":750,"x_min":54,"x_max":696,"o":"m 401 926 q 618 864 540 926 q 696 701 696 801 q 693 663 696 688 l 689 635 q 624 497 678 557 q 489 411 571 438 l 679 0 l 544 0 q 444 242 479 161 q 368 396 408 322 q 221 407 297 396 l 172 0 l 54 0 l 167 919 q 401 926 296 926 m 272 825 l 232 497 q 354 489 306 489 q 572 646 546 489 l 574 654 q 576 690 576 679 q 530 792 576 757 q 392 828 483 828 l 272 825 m 419 1100 l 621 1168 l 610 1074 l 407 989 l 221 1074 l 232 1168 l 419 1100 z "},"Ŗ":{"ha":750,"x_min":54,"x_max":696,"o":"m 401 926 q 618 864 540 926 q 696 701 696 801 q 693 663 696 688 l 689 635 q 624 497 678 557 q 489 411 571 438 l 679 0 l 544 0 q 444 242 479 161 q 368 396 408 322 q 221 407 297 396 l 172 0 l 54 0 l 167 919 q 401 926 296 926 m 272 825 l 232 497 q 354 489 306 489 q 572 646 546 489 l 574 654 q 576 690 576 679 q 530 792 576 757 q 392 828 483 828 l 272 825 m 410 -169 q 389 -232 404 -199 l 350 -314 l 278 -314 l 314 -215 q 279 -169 279 -203 l 281 -157 l 285 -129 q 303 -90 289 -103 q 349 -78 318 -78 q 398 -91 381 -78 q 415 -128 415 -104 q 414 -142 415 -137 l 410 -169 z "},"S":{"ha":633,"x_min":40,"x_max":583,"o":"m 421 492 q 537 407 499 460 q 575 276 575 354 q 571 219 575 251 l 568 201 q 483 38 551 92 q 290 -17 414 -17 q 160 1 231 -17 q 40 42 89 18 l 54 160 q 231 92 150 111 q 290 89 258 89 q 400 119 363 89 q 449 211 438 149 l 451 226 q 456 268 456 250 q 433 341 456 313 q 358 390 410 369 l 235 440 q 122 526 161 469 q 83 660 83 583 q 92 732 83 694 l 94 744 q 374 926 135 926 q 476 917 417 926 q 583 896 535 908 l 568 783 q 417 819 490 806 q 368 821 396 821 q 213 717 229 821 l 210 700 q 207 667 207 678 q 231 591 207 622 q 306 539 254 560 l 421 492 z "},"Ś":{"ha":633,"x_min":40,"x_max":583,"o":"m 421 492 q 537 407 499 460 q 575 276 575 354 q 571 219 575 251 l 568 201 q 483 38 551 92 q 290 -17 414 -17 q 160 1 231 -17 q 40 42 89 18 l 54 160 q 231 92 150 111 q 290 89 258 89 q 400 119 363 89 q 449 211 438 149 l 451 226 q 456 268 456 250 q 433 341 456 313 q 358 390 410 369 l 235 440 q 122 526 161 469 q 83 660 83 583 q 92 732 83 694 l 94 744 q 374 926 135 926 q 476 917 417 926 q 583 896 535 908 l 568 783 q 417 819 490 806 q 368 821 396 821 q 213 717 229 821 l 210 700 q 207 667 207 678 q 231 591 207 622 q 306 539 254 560 l 421 492 m 411 986 l 314 986 l 422 1151 l 546 1151 l 411 986 z "},"Š":{"ha":633,"x_min":40,"x_max":583,"o":"m 421 492 q 537 407 499 460 q 575 276 575 354 q 571 219 575 251 l 568 201 q 483 38 551 92 q 290 -17 414 -17 q 160 1 231 -17 q 40 42 89 18 l 54 160 q 231 92 150 111 q 290 89 258 89 q 400 119 363 89 q 449 211 438 149 l 451 226 q 456 268 456 250 q 433 341 456 313 q 358 390 410 369 l 235 440 q 122 526 161 469 q 83 660 83 583 q 92 732 83 694 l 94 744 q 374 926 135 926 q 476 917 417 926 q 583 896 535 908 l 568 783 q 417 819 490 806 q 368 821 396 821 q 213 717 229 821 l 210 700 q 207 667 207 678 q 231 591 207 622 q 306 539 254 560 l 421 492 m 374 1100 l 575 1168 l 564 1074 l 361 989 l 175 1074 l 186 1168 l 374 1100 z "},"Ş":{"ha":633,"x_min":40,"x_max":583,"o":"m 374 926 q 476 917 417 926 q 583 896 535 908 l 568 783 q 417 819 490 806 q 368 821 396 821 q 213 717 229 821 l 210 700 q 207 667 207 678 q 231 591 207 622 q 306 539 254 560 l 421 492 q 537 407 499 460 q 575 276 575 354 q 571 219 575 251 l 568 201 q 319 -15 536 -3 l 301 -57 l 304 -57 q 362 -80 340 -57 q 383 -140 383 -103 l 382 -156 l 381 -168 q 249 -274 368 -274 q 167 -261 210 -274 l 176 -185 q 239 -199 208 -199 q 273 -190 261 -199 q 288 -167 285 -181 l 289 -157 q 280 -123 292 -135 q 242 -111 268 -111 l 206 -111 l 210 -83 l 242 -14 q 133 7 188 -8 q 40 42 78 22 l 54 160 q 231 92 150 111 q 290 89 258 89 q 400 119 363 89 q 449 211 438 149 l 451 226 q 456 268 456 250 q 433 341 456 313 q 358 390 410 369 l 235 440 q 122 526 161 469 q 83 660 83 583 q 92 732 83 694 l 94 744 q 374 926 135 926 z "},"Ș":{"ha":633,"x_min":40,"x_max":583,"o":"m 421 492 q 537 407 499 460 q 575 276 575 354 q 571 219 575 251 l 568 201 q 483 38 551 92 q 290 -17 414 -17 q 160 1 231 -17 q 40 42 89 18 l 54 160 q 231 92 150 111 q 290 89 258 89 q 400 119 363 89 q 449 211 438 149 l 451 226 q 456 268 456 250 q 433 341 456 313 q 358 390 410 369 l 235 440 q 122 526 161 469 q 83 660 83 583 q 92 732 83 694 l 94 744 q 374 926 135 926 q 476 917 417 926 q 583 896 535 908 l 568 783 q 417 819 490 806 q 368 821 396 821 q 213 717 229 821 l 210 700 q 207 667 207 678 q 231 591 207 622 q 306 539 254 560 l 421 492 m 364 -169 q 343 -232 358 -199 l 304 -314 l 232 -314 l 268 -215 q 233 -169 233 -203 l 235 -157 l 239 -129 q 258 -90 243 -103 q 303 -78 272 -78 q 352 -91 335 -78 q 369 -128 369 -104 q 368 -142 369 -137 l 364 -169 z "},"T":{"ha":729,"x_min":89,"x_max":749,"o":"m 89 803 l 103 910 l 749 910 l 735 803 l 471 803 l 374 0 l 256 0 l 353 803 l 89 803 z "},"Ť":{"ha":729,"x_min":89,"x_max":749,"o":"m 89 803 l 103 910 l 749 910 l 735 803 l 471 803 l 374 0 l 256 0 l 353 803 l 89 803 m 447 1100 l 649 1168 l 638 1074 l 435 989 l 249 1074 l 260 1168 l 447 1100 z "},"Ţ":{"ha":729,"x_min":89,"x_max":749,"o":"m 735 803 l 471 803 l 374 0 l 321 0 l 296 -57 l 299 -57 q 356 -80 335 -57 q 378 -140 378 -103 l 376 -156 l 375 -168 q 243 -274 363 -274 q 161 -261 204 -274 l 171 -185 q 233 -199 203 -199 q 267 -190 256 -199 q 282 -167 279 -181 l 283 -157 q 274 -123 286 -135 q 236 -111 263 -111 l 200 -111 l 204 -83 l 260 36 l 353 803 l 89 803 l 103 910 l 749 910 l 735 803 z "},"Ț":{"ha":729,"x_min":89,"x_max":749,"o":"m 89 803 l 103 910 l 749 910 l 735 803 l 471 803 l 374 0 l 256 0 l 353 803 l 89 803 m 363 -169 q 342 -232 357 -199 l 303 -314 l 231 -314 l 267 -215 q 232 -169 232 -203 l 233 -157 l 238 -129 q 256 -90 242 -103 q 301 -78 271 -78 q 351 -91 333 -78 q 368 -128 368 -104 q 367 -142 368 -137 l 363 -169 z "},"U":{"ha":800,"x_min":83,"x_max":757,"o":"m 679 279 q 583 56 660 128 q 363 -17 506 -17 q 155 47 226 -17 q 83 229 83 111 q 88 283 83 254 l 165 910 l 283 910 l 204 274 q 201 240 201 251 q 246 129 201 168 q 371 90 290 90 q 502 133 456 90 q 560 269 549 176 l 639 910 l 757 910 l 679 279 z "},"Ú":{"ha":800,"x_min":83,"x_max":757,"o":"m 679 279 q 583 56 660 128 q 363 -17 506 -17 q 155 47 226 -17 q 83 229 83 111 q 88 283 83 254 l 165 910 l 283 910 l 204 274 q 201 240 201 251 q 246 129 201 168 q 371 90 290 90 q 502 133 456 90 q 560 269 549 176 l 639 910 l 757 910 l 679 279 m 508 986 l 411 986 l 519 1151 l 643 1151 l 508 986 z "},"Û":{"ha":800,"x_min":83,"x_max":757,"o":"m 679 279 q 583 56 660 128 q 363 -17 506 -17 q 155 47 226 -17 q 83 229 83 111 q 88 283 83 254 l 165 910 l 283 910 l 204 274 q 201 240 201 251 q 246 129 201 168 q 371 90 290 90 q 502 133 456 90 q 560 269 549 176 l 639 910 l 757 910 l 679 279 m 272 988 l 282 1082 l 486 1167 l 671 1082 l 661 988 l 474 1056 l 272 988 z "},"Ü":{"ha":800,"x_min":83,"x_max":757,"o":"m 679 279 q 583 56 660 128 q 363 -17 506 -17 q 155 47 226 -17 q 83 229 83 111 q 88 283 83 254 l 165 910 l 283 910 l 204 274 q 201 240 201 251 q 246 129 201 168 q 371 90 290 90 q 502 133 456 90 q 560 269 549 176 l 639 910 l 757 910 l 679 279 m 425 1044 q 405 1001 422 1015 q 350 986 388 986 q 292 1004 314 986 q 274 1051 269 1022 l 279 1090 q 301 1135 283 1121 q 356 1150 319 1150 q 413 1133 393 1150 q 431 1085 432 1115 l 425 1044 m 664 1044 q 589 986 660 986 q 530 1004 551 986 q 513 1051 508 1022 l 518 1090 q 540 1136 522 1122 q 594 1150 558 1150 q 651 1133 632 1150 q 669 1085 671 1115 l 664 1044 z "},"Ù":{"ha":800,"x_min":83,"x_max":757,"o":"m 679 279 q 583 56 660 128 q 363 -17 506 -17 q 155 47 226 -17 q 83 229 83 111 q 88 283 83 254 l 165 910 l 283 910 l 204 274 q 201 240 201 251 q 246 129 201 168 q 371 90 290 90 q 502 133 456 90 q 560 269 549 176 l 639 910 l 757 910 l 679 279 m 314 1151 l 438 1151 l 513 986 l 415 986 l 314 1151 z "},"Ű":{"ha":800,"x_min":83,"x_max":757,"o":"m 679 279 q 583 56 660 128 q 363 -17 506 -17 q 155 47 226 -17 q 83 229 83 111 q 88 283 83 254 l 165 910 l 283 910 l 204 274 q 201 240 201 251 q 246 129 201 168 q 371 90 290 90 q 502 133 456 90 q 560 269 549 176 l 639 910 l 757 910 l 679 279 m 388 986 l 283 986 l 383 1151 l 494 1151 l 388 986 m 582 986 l 478 986 l 578 1151 l 689 1151 l 582 986 z "},"Ū":{"ha":800,"x_min":83,"x_max":757,"o":"m 679 279 q 583 56 660 128 q 363 -17 506 -17 q 155 47 226 -17 q 83 229 83 111 q 88 283 83 254 l 165 910 l 283 910 l 204 274 q 201 240 201 251 q 246 129 201 168 q 371 90 290 90 q 502 133 456 90 q 560 269 549 176 l 639 910 l 757 910 l 679 279 m 301 986 l 315 1090 l 642 1090 l 628 986 l 301 986 z "},"Ų":{"ha":800,"x_min":83,"x_max":757,"o":"m 679 279 q 609 83 664 154 q 456 -7 554 13 q 401 -58 422 -28 q 375 -121 381 -87 l 374 -135 q 372 -147 372 -139 q 385 -177 372 -168 q 425 -186 397 -186 q 471 -182 446 -186 l 460 -267 q 392 -274 428 -274 q 299 -249 331 -274 q 268 -181 268 -224 q 269 -161 268 -168 l 272 -143 q 297 -76 276 -110 q 350 -17 318 -43 q 151 50 219 -14 q 83 228 83 114 q 88 283 83 254 l 165 910 l 283 910 l 204 274 q 201 240 201 251 q 246 129 201 168 q 371 90 290 90 q 502 133 456 90 q 560 269 549 176 l 639 910 l 757 910 l 679 279 z "},"Ů":{"ha":800,"x_min":83,"x_max":757,"o":"m 679 279 q 583 56 660 128 q 363 -17 506 -17 q 155 47 226 -17 q 83 229 83 111 q 88 283 83 254 l 165 910 l 283 910 l 204 274 q 201 240 201 251 q 246 129 201 168 q 371 90 290 90 q 502 133 456 90 q 560 269 549 176 l 639 910 l 757 910 l 679 279 m 483 1229 q 593 1197 553 1229 q 633 1104 633 1164 q 589 990 633 1029 q 464 951 544 951 q 353 985 394 951 q 311 1079 311 1019 q 357 1192 311 1154 q 483 1229 403 1229 m 478 1153 q 421 1136 439 1153 q 403 1083 403 1119 q 468 1028 408 1028 q 527 1047 508 1028 q 543 1101 546 1067 q 526 1139 543 1125 q 478 1153 510 1153 z "},"V":{"ha":731,"x_min":79,"x_max":774,"o":"m 393 0 l 238 0 l 79 910 l 197 910 q 321 114 278 464 q 642 910 500 511 l 774 910 l 393 0 z "},"W":{"ha":1178,"x_min":96,"x_max":1204,"o":"m 886 0 l 728 0 l 633 775 l 351 0 l 193 0 l 96 910 l 217 910 q 288 129 263 524 q 565 910 432 493 l 724 910 q 815 129 785 486 q 1075 910 946 476 l 1204 910 l 886 0 z "},"X":{"ha":721,"x_min":-32,"x_max":749,"o":"m 443 465 l 653 0 l 514 0 q 356 372 444 181 l 318 315 q 106 0 179 104 l -32 0 l 292 474 l 96 910 l 229 910 q 375 563 294 761 q 610 910 511 750 l 749 910 l 443 465 z "},"Y":{"ha":682,"x_min":79,"x_max":725,"o":"m 388 313 l 350 0 l 232 0 l 269 313 l 79 910 l 208 910 q 339 438 285 654 q 588 910 465 654 l 725 910 l 388 313 z "},"Ý":{"ha":682,"x_min":79,"x_max":725,"o":"m 388 313 l 350 0 l 232 0 l 269 313 l 79 910 l 208 910 q 339 438 285 654 q 588 910 465 654 l 725 910 l 388 313 m 446 986 l 349 986 l 457 1151 l 581 1151 l 446 986 z "},"Ÿ":{"ha":682,"x_min":79,"x_max":725,"o":"m 388 313 l 350 0 l 232 0 l 269 313 l 79 910 l 208 910 q 339 438 285 654 q 588 910 465 654 l 725 910 l 388 313 m 363 1044 q 342 1001 360 1015 q 288 986 325 986 q 229 1004 251 986 q 211 1051 207 1022 l 217 1090 q 239 1135 221 1121 q 293 1150 257 1150 q 350 1133 331 1150 q 368 1085 369 1115 l 363 1044 m 601 1044 q 526 986 597 986 q 467 1004 489 986 q 450 1051 446 1022 l 456 1090 q 478 1136 460 1122 q 532 1150 496 1150 q 589 1133 569 1150 q 607 1085 608 1115 l 601 1044 z "},"Z":{"ha":667,"x_min":6,"x_max":665,"o":"m 15 93 l 507 803 l 111 803 l 125 910 l 665 910 l 653 817 q 160 107 417 506 l 565 107 l 554 0 l 6 0 l 15 93 z "},"Ź":{"ha":667,"x_min":6,"x_max":665,"o":"m 15 93 l 507 803 l 111 803 l 125 910 l 665 910 l 653 817 q 160 107 417 506 l 565 107 l 554 0 l 6 0 l 15 93 m 449 986 l 351 986 l 460 1151 l 583 1151 l 449 986 z "},"Ž":{"ha":667,"x_min":6,"x_max":665,"o":"m 15 93 l 507 803 l 111 803 l 125 910 l 665 910 l 653 817 q 160 107 417 506 l 565 107 l 554 0 l 6 0 l 15 93 m 411 1100 l 613 1168 l 601 1074 l 399 989 l 213 1074 l 224 1168 l 411 1100 z "},"Ż":{"ha":667,"x_min":6,"x_max":665,"o":"m 15 93 l 507 803 l 111 803 l 125 910 l 665 910 l 653 817 q 160 107 417 506 l 565 107 l 554 0 l 6 0 l 15 93 m 486 1043 q 465 999 485 1013 q 408 985 446 985 q 349 1003 371 985 q 332 1051 328 1022 l 338 1092 q 360 1137 342 1122 q 415 1151 379 1151 q 474 1133 453 1151 q 492 1083 494 1115 l 486 1043 z "},"a":{"ha":661,"x_min":49,"x_max":603,"o":"m 315 694 q 406 672 363 694 q 483 608 449 649 l 492 678 l 603 678 l 508 0 l 396 0 l 408 90 l 465 264 l 463 267 l 458 265 q 203 -17 364 -17 q 91 31 133 -17 q 49 164 49 78 q 54 228 49 199 l 90 454 q 170 633 110 572 q 315 694 231 694 m 331 593 q 208 447 232 593 l 175 243 q 168 176 168 199 q 185 109 168 129 q 236 89 203 89 q 367 181 311 89 q 446 389 422 274 l 464 518 q 401 573 436 553 q 331 593 365 593 z "},"á":{"ha":661,"x_min":49,"x_max":603,"o":"m 315 694 q 406 672 363 694 q 483 608 449 649 l 492 678 l 603 678 l 508 0 l 396 0 l 408 90 l 465 264 l 463 267 l 458 265 q 203 -17 364 -17 q 91 31 133 -17 q 49 164 49 78 q 54 228 49 199 l 90 454 q 170 633 110 572 q 315 694 231 694 m 331 593 q 208 447 232 593 l 175 243 q 168 176 168 199 q 185 109 168 129 q 236 89 203 89 q 367 181 311 89 q 446 389 422 274 l 464 518 q 401 573 436 553 q 331 593 365 593 m 404 758 l 306 758 l 431 951 l 556 951 l 404 758 z "},"ă":{"ha":661,"x_min":49,"x_max":603,"o":"m 315 694 q 406 672 363 694 q 483 608 449 649 l 492 678 l 603 678 l 508 0 l 396 0 l 408 90 l 465 264 l 463 267 l 458 265 q 203 -17 364 -17 q 91 31 133 -17 q 49 164 49 78 q 54 228 49 199 l 90 454 q 170 633 110 572 q 315 694 231 694 m 331 593 q 208 447 232 593 l 175 243 q 168 176 168 199 q 185 109 168 129 q 236 89 203 89 q 367 181 311 89 q 446 389 422 274 l 464 518 q 401 573 436 553 q 331 593 365 593 m 549 836 q 522 813 549 833 q 453 774 496 792 q 357 757 411 757 q 267 776 304 757 q 208 816 229 794 q 188 842 188 838 l 204 951 q 226 925 204 949 q 286 881 249 901 q 372 861 324 861 q 464 881 421 861 q 536 925 507 901 q 565 951 565 949 l 549 836 z "},"â":{"ha":661,"x_min":49,"x_max":603,"o":"m 315 694 q 406 672 363 694 q 483 608 449 649 l 492 678 l 603 678 l 508 0 l 396 0 l 408 90 l 465 264 l 463 267 l 458 265 q 203 -17 364 -17 q 91 31 133 -17 q 49 164 49 78 q 54 228 49 199 l 90 454 q 170 633 110 572 q 315 694 231 694 m 331 593 q 208 447 232 593 l 175 243 q 168 176 168 199 q 185 109 168 129 q 236 89 203 89 q 367 181 311 89 q 446 389 422 274 l 464 518 q 401 573 436 553 q 331 593 365 593 m 386 851 l 189 758 l 201 858 l 397 958 l 563 851 l 550 758 l 386 851 z "},"ä":{"ha":661,"x_min":49,"x_max":603,"o":"m 315 694 q 406 672 363 694 q 483 608 449 649 l 492 678 l 603 678 l 508 0 l 396 0 l 408 90 l 465 264 l 463 267 l 458 265 q 203 -17 364 -17 q 91 31 133 -17 q 49 164 49 78 q 54 228 49 199 l 90 454 q 170 633 110 572 q 315 694 231 694 m 331 593 q 208 447 232 593 l 175 243 q 168 176 168 199 q 185 109 168 129 q 236 89 203 89 q 367 181 311 89 q 446 389 422 274 l 464 518 q 401 573 436 553 q 331 593 365 593 m 329 860 q 307 816 325 831 q 251 801 289 801 q 194 819 215 801 q 178 867 174 838 l 183 906 q 263 965 192 965 q 319 948 300 965 q 335 900 339 931 l 329 860 m 568 860 q 545 816 564 831 q 490 801 526 801 q 433 819 454 801 q 417 867 413 838 l 422 906 q 446 951 426 936 q 501 965 465 965 q 558 948 539 965 q 574 900 578 931 l 568 860 z "},"à":{"ha":661,"x_min":49,"x_max":603,"o":"m 315 694 q 406 672 363 694 q 483 608 449 649 l 492 678 l 603 678 l 508 0 l 396 0 l 408 90 l 465 264 l 463 267 l 458 265 q 203 -17 364 -17 q 91 31 133 -17 q 49 164 49 78 q 54 228 49 199 l 90 454 q 170 633 110 572 q 315 694 231 694 m 331 593 q 208 447 232 593 l 175 243 q 168 176 168 199 q 185 109 168 129 q 236 89 203 89 q 367 181 311 89 q 446 389 422 274 l 464 518 q 401 573 436 553 q 331 593 365 593 m 167 951 l 292 951 l 417 758 l 318 758 l 167 951 z "},"ā":{"ha":661,"x_min":49,"x_max":603,"o":"m 315 694 q 406 672 363 694 q 483 608 449 649 l 492 678 l 603 678 l 508 0 l 396 0 l 408 90 l 465 264 l 463 267 l 458 265 q 203 -17 364 -17 q 91 31 133 -17 q 49 164 49 78 q 54 228 49 199 l 90 454 q 170 633 110 572 q 315 694 231 694 m 331 593 q 208 447 232 593 l 175 243 q 168 176 168 199 q 185 109 168 129 q 236 89 203 89 q 367 181 311 89 q 446 389 422 274 l 464 518 q 401 573 436 553 q 331 593 365 593 m 219 842 l 233 946 l 532 946 l 518 842 l 219 842 z "},"ą":{"ha":661,"x_min":49,"x_max":603,"o":"m 315 694 q 405 672 363 694 q 482 608 447 649 l 492 678 l 603 678 l 508 0 l 486 0 q 422 -52 446 -19 q 392 -121 397 -85 l 390 -135 q 389 -147 389 -139 q 401 -177 389 -168 q 442 -186 414 -186 q 488 -182 463 -186 l 476 -267 q 408 -274 446 -274 q 316 -249 347 -274 q 285 -181 285 -224 q 286 -161 285 -168 l 289 -143 q 324 -62 294 -103 q 396 4 353 -22 l 408 90 l 465 264 l 463 267 l 458 265 q 203 -17 364 -17 q 91 31 133 -17 q 49 164 49 78 q 54 228 49 199 l 90 454 q 170 633 110 572 q 315 694 231 694 m 331 593 q 208 447 232 593 l 175 243 q 168 176 168 199 q 185 109 168 129 q 236 89 203 89 q 366 180 311 89 q 444 386 421 271 l 464 518 q 401 573 436 553 q 331 593 365 593 z "},"å":{"ha":661,"x_min":49,"x_max":603,"o":"m 315 694 q 406 672 363 694 q 483 608 449 649 l 492 678 l 603 678 l 508 0 l 396 0 l 408 90 l 465 264 l 463 267 l 458 265 q 203 -17 364 -17 q 91 31 133 -17 q 49 164 49 78 q 54 228 49 199 l 90 454 q 170 633 110 572 q 315 694 231 694 m 331 593 q 208 447 232 593 l 175 243 q 168 176 168 199 q 185 109 168 129 q 236 89 203 89 q 367 181 311 89 q 446 389 422 274 l 464 518 q 401 573 436 553 q 331 593 365 593 m 385 1004 q 492 970 450 1004 q 533 881 533 936 q 490 775 533 815 q 368 735 447 735 q 262 769 304 735 q 219 860 219 803 q 263 965 219 926 q 385 1004 307 1004 m 382 933 q 323 917 340 933 q 306 865 306 901 q 324 822 306 839 q 374 806 342 806 q 432 823 415 806 q 449 878 449 840 q 431 919 449 904 q 382 933 414 933 z "},"ã":{"ha":661,"x_min":49,"x_max":603,"o":"m 315 694 q 406 672 363 694 q 483 608 449 649 l 492 678 l 603 678 l 508 0 l 396 0 l 408 90 l 465 264 l 463 267 l 458 265 q 203 -17 364 -17 q 91 31 133 -17 q 49 164 49 78 q 54 228 49 199 l 90 454 q 170 633 110 572 q 315 694 231 694 m 331 593 q 208 447 232 593 l 175 243 q 168 176 168 199 q 185 109 168 129 q 236 89 203 89 q 367 181 311 89 q 446 389 422 274 l 464 518 q 401 573 436 553 q 331 593 365 593 m 553 851 q 533 839 549 849 q 490 821 517 829 q 436 813 464 813 q 364 831 406 813 q 299 847 325 847 q 253 840 278 847 q 210 824 228 832 q 186 813 192 815 l 200 907 q 220 922 204 911 q 263 942 236 932 q 317 951 289 951 q 358 947 342 951 q 399 932 374 942 q 453 917 429 917 q 499 924 474 917 q 542 940 524 932 q 567 951 561 949 l 553 851 z "},"æ":{"ha":972,"x_min":49,"x_max":929,"o":"m 732 694 q 877 647 825 694 q 929 519 929 600 q 835 333 929 410 q 544 240 740 257 l 542 225 q 538 183 538 203 q 642 85 538 85 q 738 99 685 85 q 839 139 790 114 l 818 32 q 717 -3 771 10 q 622 -17 664 -17 q 475 31 525 -17 q 422 174 425 78 q 203 -17 335 -17 q 85 37 122 -17 q 49 168 49 90 q 54 228 49 201 l 92 460 q 167 635 110 575 q 311 694 225 694 q 425 658 368 694 q 513 571 482 622 q 608 663 551 632 q 732 694 664 694 m 728 596 q 626 540 672 596 q 565 378 581 483 l 556 315 q 706 353 647 331 q 787 429 761 392 q 813 510 813 467 q 790 573 813 550 q 728 596 767 596 m 339 589 q 253 556 285 589 q 208 449 221 524 l 175 243 q 168 174 168 206 q 236 89 168 89 q 337 142 290 89 q 413 264 383 194 q 446 375 442 333 q 479 501 451 428 q 416 564 456 539 q 339 589 376 589 z "},"b":{"ha":654,"x_min":65,"x_max":590,"o":"m 269 949 q 253 714 267 814 l 247 674 l 165 351 l 168 349 l 172 351 q 285 608 221 521 q 433 694 350 694 q 549 647 507 694 q 590 507 590 600 q 581 413 590 461 l 547 246 q 458 44 518 104 q 289 -17 397 -17 q 123 38 181 -17 q 65 196 65 93 q 69 257 65 226 l 124 636 q 151 949 147 806 l 269 949 m 406 589 q 313 531 358 589 q 234 383 268 474 q 185 196 200 292 q 211 112 183 142 q 289 82 239 82 q 377 115 344 82 q 425 225 410 149 l 463 406 q 472 488 472 450 q 454 564 472 539 q 406 589 436 589 z "},"c":{"ha":546,"x_min":56,"x_max":503,"o":"m 258 -17 q 108 35 161 -17 q 56 183 56 86 q 60 240 56 211 l 89 446 q 172 634 107 574 q 344 694 236 694 q 503 669 417 694 l 486 564 q 343 594 404 594 q 253 560 288 594 q 208 456 218 525 l 179 242 q 176 197 176 225 q 201 113 176 139 q 275 88 226 88 q 357 99 314 88 q 439 133 400 111 l 426 26 q 258 -17 336 -17 z "},"ć":{"ha":546,"x_min":56,"x_max":532,"o":"m 258 -17 q 108 35 161 -17 q 56 183 56 86 q 60 240 56 211 l 89 446 q 172 634 107 574 q 344 694 236 694 q 503 669 417 694 l 486 564 q 343 594 404 594 q 253 560 288 594 q 208 456 218 525 l 179 242 q 176 197 176 225 q 201 113 176 139 q 275 88 226 88 q 357 99 314 88 q 439 133 400 111 l 426 26 q 258 -17 336 -17 m 381 758 l 282 758 l 407 951 l 532 951 l 381 758 z "},"č":{"ha":546,"x_min":56,"x_max":539,"o":"m 258 -17 q 108 35 161 -17 q 56 183 56 86 q 60 240 56 211 l 89 446 q 172 634 107 574 q 344 694 236 694 q 503 669 417 694 l 486 564 q 343 594 404 594 q 253 560 288 594 q 208 456 218 525 l 179 242 q 176 197 176 225 q 201 113 176 139 q 275 88 226 88 q 357 99 314 88 q 439 133 400 111 l 426 26 q 258 -17 336 -17 m 342 865 l 539 958 l 526 856 l 331 758 l 165 864 l 178 958 l 342 865 z "},"ç":{"ha":546,"x_min":56,"x_max":503,"o":"m 344 694 q 503 669 417 694 l 486 564 q 343 594 404 594 q 253 560 288 594 q 208 456 218 525 l 179 242 q 176 197 176 225 q 201 113 176 139 q 275 88 226 88 q 357 99 314 88 q 439 133 400 111 l 426 26 q 267 -17 346 -12 l 250 -57 l 253 -57 q 310 -80 289 -57 q 332 -140 332 -103 l 331 -156 l 329 -168 q 197 -274 317 -274 q 115 -261 158 -274 l 125 -185 q 188 -199 157 -199 q 222 -190 210 -199 q 236 -167 233 -181 l 238 -157 q 228 -123 240 -135 q 190 -111 217 -111 l 154 -111 l 158 -83 l 193 -10 q 91 54 126 6 q 56 182 56 103 q 60 240 56 210 l 89 446 q 172 634 107 574 q 344 694 236 694 z "},"d":{"ha":661,"x_min":49,"x_max":640,"o":"m 508 0 l 396 0 l 408 90 l 465 264 l 463 267 l 458 265 q 203 -17 364 -17 q 91 31 133 -17 q 49 164 49 78 q 54 228 49 199 l 92 460 q 169 635 111 576 q 313 694 228 694 q 399 674 357 694 q 476 615 442 653 l 522 949 l 640 949 l 508 0 m 331 589 q 251 556 282 589 q 208 447 221 522 l 175 243 q 168 176 168 199 q 185 109 168 129 q 236 89 203 89 q 366 179 311 89 q 444 383 421 269 l 463 519 q 401 571 436 553 q 331 589 367 589 z "},"ð":{"ha":676,"x_min":71,"x_max":663,"o":"m 232 965 q 517 854 425 965 l 663 896 l 650 804 l 563 779 q 597 589 597 699 q 588 465 597 543 l 554 229 q 476 44 538 106 q 297 -17 414 -17 q 128 33 186 -17 q 71 178 71 83 q 75 232 71 203 l 97 392 q 163 558 113 506 q 301 610 214 610 q 398 583 351 610 q 474 501 444 556 l 479 536 q 485 607 485 569 q 454 749 485 688 l 281 701 l 294 793 l 396 821 q 219 876 328 876 l 232 965 m 317 504 q 247 472 274 504 q 210 367 219 439 l 188 211 q 186 186 186 203 q 216 109 186 136 q 300 82 246 82 q 392 113 361 82 q 432 206 424 143 l 458 390 q 394 475 433 446 q 317 504 356 504 z "},"ď":{"ha":750,"x_min":49,"x_max":819,"o":"m 814 874 q 793 811 808 844 l 754 729 l 682 729 l 718 828 q 683 874 683 840 l 685 886 l 689 914 q 708 953 693 940 q 753 965 722 965 q 802 952 785 965 q 819 915 819 939 q 818 901 819 906 l 814 874 m 508 0 l 396 0 l 408 90 l 465 264 l 463 267 l 458 265 q 203 -17 364 -17 q 91 31 133 -17 q 49 164 49 78 q 54 228 49 199 l 92 460 q 169 635 111 576 q 313 694 228 694 q 399 674 357 694 q 476 615 442 653 l 522 949 l 640 949 l 508 0 m 331 589 q 251 556 282 589 q 208 447 221 522 l 175 243 q 168 176 168 199 q 185 109 168 129 q 236 89 203 89 q 366 179 311 89 q 444 383 421 269 l 463 519 q 401 571 436 553 q 331 589 367 589 z "},"đ":{"ha":668,"x_min":49,"x_max":726,"o":"m 628 865 l 726 865 l 713 768 l 615 768 l 508 0 l 396 0 l 408 90 l 465 264 l 463 267 l 458 265 q 203 -17 364 -17 q 91 31 133 -17 q 49 164 49 78 q 54 228 49 199 l 92 460 q 169 635 111 576 q 313 694 228 694 q 399 674 357 694 q 476 615 442 653 l 497 768 l 331 768 l 344 865 l 510 865 l 522 949 l 640 949 l 628 865 m 331 589 q 251 556 282 589 q 208 447 221 522 l 175 243 q 168 176 168 199 q 185 109 168 129 q 236 89 203 89 q 366 179 311 89 q 444 383 421 269 l 463 519 q 401 571 436 553 q 331 589 367 589 z "},"e":{"ha":606,"x_min":56,"x_max":563,"o":"m 365 694 q 510 648 457 694 q 563 522 563 601 q 468 334 563 411 q 176 240 374 257 l 175 225 q 171 183 171 203 q 275 85 171 85 q 371 99 318 85 q 472 139 424 114 l 451 32 q 351 -3 404 10 q 256 -17 297 -17 q 56 185 56 -17 q 63 264 56 215 l 79 372 q 178 613 103 531 q 365 694 254 694 m 361 596 q 260 540 306 596 q 199 378 214 483 l 189 315 q 339 353 281 331 q 420 429 394 392 q 446 510 446 467 q 423 573 446 550 q 361 596 400 596 z "},"é":{"ha":606,"x_min":56,"x_max":563,"o":"m 365 694 q 510 648 457 694 q 563 522 563 601 q 468 334 563 411 q 176 240 374 257 l 175 225 q 171 183 171 203 q 275 85 171 85 q 371 99 318 85 q 472 139 424 114 l 451 32 q 351 -3 404 10 q 256 -17 297 -17 q 56 185 56 -17 q 63 264 56 215 l 79 372 q 178 613 103 531 q 365 694 254 694 m 361 596 q 260 540 306 596 q 199 378 214 483 l 189 315 q 339 353 281 331 q 420 429 394 392 q 446 510 446 467 q 423 573 446 550 q 361 596 400 596 m 404 758 l 306 758 l 431 951 l 556 951 l 404 758 z "},"ě":{"ha":606,"x_min":56,"x_max":563,"o":"m 365 694 q 510 648 457 694 q 563 522 563 601 q 468 334 563 411 q 176 240 374 257 l 175 225 q 171 183 171 203 q 275 85 171 85 q 371 99 318 85 q 472 139 424 114 l 451 32 q 351 -3 404 10 q 256 -17 297 -17 q 56 185 56 -17 q 63 264 56 215 l 79 372 q 178 613 103 531 q 365 694 254 694 m 361 596 q 260 540 306 596 q 199 378 214 483 l 189 315 q 339 353 281 331 q 420 429 394 392 q 446 510 446 467 q 423 573 446 550 q 361 596 400 596 m 365 865 l 563 958 l 550 856 l 354 758 l 189 864 l 201 958 l 365 865 z "},"ê":{"ha":606,"x_min":56,"x_max":563,"o":"m 365 694 q 510 648 457 694 q 563 522 563 601 q 468 334 563 411 q 176 240 374 257 l 175 225 q 171 183 171 203 q 275 85 171 85 q 371 99 318 85 q 472 139 424 114 l 451 32 q 351 -3 404 10 q 256 -17 297 -17 q 56 185 56 -17 q 63 264 56 215 l 79 372 q 178 613 103 531 q 365 694 254 694 m 361 596 q 260 540 306 596 q 199 378 214 483 l 189 315 q 339 353 281 331 q 420 429 394 392 q 446 510 446 467 q 423 573 446 550 q 361 596 400 596 m 386 851 l 189 758 l 201 858 l 397 958 l 563 851 l 550 758 l 386 851 z "},"ë":{"ha":606,"x_min":56,"x_max":574,"o":"m 365 694 q 510 648 457 694 q 563 522 563 601 q 468 334 563 411 q 176 240 374 257 l 175 225 q 171 183 171 203 q 275 85 171 85 q 371 99 318 85 q 472 139 424 114 l 451 32 q 351 -3 404 10 q 256 -17 297 -17 q 56 185 56 -17 q 63 264 56 215 l 79 372 q 178 613 103 531 q 365 694 254 694 m 361 596 q 260 540 306 596 q 199 378 214 483 l 189 315 q 339 353 281 331 q 420 429 394 392 q 446 510 446 467 q 423 573 446 550 q 361 596 400 596 m 329 860 q 307 816 325 831 q 251 801 289 801 q 194 819 215 801 q 178 867 174 838 l 183 906 q 263 965 192 965 q 319 948 300 965 q 335 900 339 931 l 329 860 m 568 860 q 545 816 564 831 q 490 801 526 801 q 433 819 454 801 q 417 867 413 838 l 422 906 q 446 951 426 936 q 501 965 465 965 q 558 948 539 965 q 574 900 578 931 l 568 860 z "},"ė":{"ha":606,"x_min":56,"x_max":563,"o":"m 365 694 q 510 648 457 694 q 563 522 563 601 q 468 334 563 411 q 176 240 374 257 l 175 225 q 171 183 171 203 q 275 85 171 85 q 371 99 318 85 q 472 139 424 114 l 451 32 q 351 -3 404 10 q 256 -17 297 -17 q 56 185 56 -17 q 63 264 56 215 l 79 372 q 178 613 103 531 q 365 694 254 694 m 361 596 q 260 540 306 596 q 199 378 214 483 l 189 315 q 339 353 281 331 q 420 429 394 392 q 446 510 446 467 q 423 573 446 550 q 361 596 400 596 m 450 857 q 426 813 446 826 q 369 799 407 799 q 312 817 332 799 q 296 865 292 835 l 301 906 q 325 951 306 936 q 382 965 344 965 q 440 947 419 965 q 456 897 460 928 l 450 857 z "},"è":{"ha":606,"x_min":56,"x_max":563,"o":"m 365 694 q 510 648 457 694 q 563 522 563 601 q 468 334 563 411 q 176 240 374 257 l 175 225 q 171 183 171 203 q 275 85 171 85 q 371 99 318 85 q 472 139 424 114 l 451 32 q 351 -3 404 10 q 256 -17 297 -17 q 56 185 56 -17 q 63 264 56 215 l 79 372 q 178 613 103 531 q 365 694 254 694 m 361 596 q 260 540 306 596 q 199 378 214 483 l 189 315 q 339 353 281 331 q 420 429 394 392 q 446 510 446 467 q 423 573 446 550 q 361 596 400 596 m 167 951 l 292 951 l 417 758 l 318 758 l 167 951 z "},"ē":{"ha":606,"x_min":56,"x_max":563,"o":"m 365 694 q 510 648 457 694 q 563 522 563 601 q 468 334 563 411 q 176 240 374 257 l 175 225 q 171 183 171 203 q 275 85 171 85 q 371 99 318 85 q 472 139 424 114 l 451 32 q 351 -3 404 10 q 256 -17 297 -17 q 56 185 56 -17 q 63 264 56 215 l 79 372 q 178 613 103 531 q 365 694 254 694 m 361 596 q 260 540 306 596 q 199 378 214 483 l 189 315 q 339 353 281 331 q 420 429 394 392 q 446 510 446 467 q 423 573 446 550 q 361 596 400 596 m 219 842 l 233 946 l 532 946 l 518 842 l 219 842 z "},"ę":{"ha":606,"x_min":56,"x_max":563,"o":"m 365 694 q 510 648 457 694 q 563 522 563 601 q 468 334 563 411 q 176 240 374 257 l 175 225 q 174 194 174 214 q 198 111 174 138 q 275 85 222 85 q 371 99 318 85 q 472 139 424 114 l 451 32 q 397 10 417 17 q 317 -43 349 -7 q 279 -121 286 -79 l 278 -135 q 276 -147 276 -139 q 289 -177 276 -168 q 329 -186 301 -186 q 375 -182 350 -186 l 364 -267 q 296 -274 333 -274 q 203 -249 235 -274 q 172 -181 172 -224 q 174 -161 172 -168 l 176 -143 q 201 -76 181 -110 q 254 -17 222 -43 q 105 34 154 -15 q 56 183 56 83 q 63 264 56 215 l 79 372 q 178 613 103 531 q 365 694 254 694 m 361 596 q 260 540 306 596 q 199 378 214 483 l 189 315 q 339 353 281 331 q 420 429 394 392 q 446 510 446 467 q 423 573 446 550 q 361 596 400 596 z "},"f":{"ha":408,"x_min":-129,"x_max":519,"o":"m 413 965 q 466 961 435 965 q 519 950 497 957 l 507 853 q 406 869 447 869 q 340 844 364 869 q 307 756 317 818 l 296 678 l 421 678 l 407 581 l 282 581 l 196 -44 q 131 -219 179 -165 q -7 -274 83 -274 q -69 -268 -33 -274 q -129 -254 -106 -262 l -115 -156 q -15 -174 -64 -174 q 46 -147 25 -174 q 76 -51 67 -119 l 164 581 l 61 581 l 71 650 l 176 669 l 188 749 q 413 965 218 965 z "},"g":{"ha":664,"x_min":49,"x_max":607,"o":"m 318 694 q 408 672 365 694 q 486 608 451 649 l 496 678 l 607 678 l 504 -50 q 428 -221 488 -168 q 247 -274 368 -274 q 149 -265 204 -274 q 49 -243 94 -257 l 63 -139 q 160 -163 110 -154 q 251 -172 211 -172 q 345 -146 315 -172 q 385 -60 375 -119 l 400 39 l 469 264 l 467 267 l 463 265 q 206 -17 365 -17 q 95 31 138 -17 q 53 164 53 78 q 58 228 53 196 l 94 454 q 174 633 114 572 q 318 694 233 694 m 333 593 q 213 447 236 593 l 179 243 q 172 175 172 199 q 189 109 172 129 q 239 89 206 89 q 374 190 318 89 q 453 410 431 290 l 468 517 q 404 573 440 553 q 333 593 368 593 z "},"ğ":{"ha":664,"x_min":49,"x_max":607,"o":"m 318 694 q 408 672 365 694 q 486 608 451 649 l 496 678 l 607 678 l 504 -50 q 428 -221 488 -168 q 247 -274 368 -274 q 149 -265 204 -274 q 49 -243 94 -257 l 63 -139 q 160 -163 110 -154 q 251 -172 211 -172 q 345 -146 315 -172 q 385 -60 375 -119 l 400 39 l 469 264 l 467 267 l 463 265 q 206 -17 365 -17 q 95 31 138 -17 q 53 164 53 78 q 58 228 53 196 l 94 454 q 174 633 114 572 q 318 694 233 694 m 333 593 q 213 447 236 593 l 179 243 q 172 175 172 199 q 189 109 172 129 q 239 89 206 89 q 374 190 318 89 q 453 410 431 290 l 468 517 q 404 573 440 553 q 333 593 368 593 m 544 836 q 518 813 544 833 q 449 774 492 792 q 353 757 407 757 q 263 776 300 757 q 204 816 225 794 q 183 842 183 838 l 200 951 q 222 925 200 949 q 282 881 244 901 q 368 861 319 861 q 460 881 417 861 q 532 925 503 901 q 561 951 561 949 l 544 836 z "},"ģ":{"ha":664,"x_min":49,"x_max":607,"o":"m 308 847 q 329 910 314 876 l 368 992 l 440 992 l 404 893 q 439 847 439 881 l 438 835 l 433 807 q 415 768 429 781 q 369 756 400 756 q 320 769 338 756 q 303 806 303 782 q 304 819 303 815 l 308 847 m 318 694 q 408 672 365 694 q 486 608 451 649 l 496 678 l 607 678 l 504 -50 q 428 -221 488 -168 q 247 -274 368 -274 q 149 -265 204 -274 q 49 -243 94 -257 l 63 -139 q 160 -163 110 -154 q 251 -172 211 -172 q 345 -146 315 -172 q 385 -60 375 -119 l 400 39 l 469 264 l 467 267 l 463 265 q 206 -17 365 -17 q 95 31 138 -17 q 53 164 53 78 q 58 228 53 196 l 94 454 q 174 633 114 572 q 318 694 233 694 m 333 593 q 213 447 236 593 l 179 243 q 172 175 172 199 q 189 109 172 129 q 239 89 206 89 q 374 190 318 89 q 453 410 431 290 l 468 517 q 404 573 440 553 q 333 593 368 593 z "},"h":{"ha":668,"x_min":42,"x_max":596,"o":"m 276 949 q 260 714 274 814 l 254 674 l 169 333 l 174 331 l 178 333 q 299 602 226 510 q 454 694 371 694 q 560 654 524 694 q 596 526 596 614 q 589 439 596 481 l 522 0 l 404 0 l 474 442 q 479 506 479 475 q 465 567 479 549 q 422 585 450 585 q 323 518 374 585 q 231 338 272 451 q 172 90 190 224 l 160 0 l 42 0 l 131 636 q 158 949 154 806 l 276 949 z "},"i":{"ha":313,"x_min":42,"x_max":300,"o":"m 42 0 l 136 678 l 254 678 l 160 0 l 42 0 m 294 857 q 271 813 290 826 q 214 799 251 799 q 156 817 176 799 q 140 865 136 835 l 146 906 q 169 951 150 936 q 226 965 189 965 q 284 947 264 965 q 300 897 304 928 l 294 857 z "},"ı":{"ha":313,"x_min":42,"x_max":254,"o":"m 42 0 l 136 678 l 254 678 l 160 0 l 42 0 z "},"í":{"ha":313,"x_min":42,"x_max":400,"o":"m 42 0 l 136 678 l 254 678 l 160 0 l 42 0 m 249 758 l 150 758 l 275 951 l 400 951 l 249 758 z "},"î":{"ha":313,"x_min":33,"x_max":407,"o":"m 42 0 l 136 678 l 254 678 l 160 0 l 42 0 m 231 851 l 33 758 l 46 858 l 242 958 l 407 851 l 394 758 l 231 851 z "},"ï":{"ha":313,"x_min":22,"x_max":418,"o":"m 42 0 l 136 678 l 254 678 l 160 0 l 42 0 m 174 860 q 151 816 169 831 q 96 801 133 801 q 39 819 60 801 q 22 867 18 838 l 28 906 q 107 965 36 965 q 164 948 144 965 q 179 900 183 931 l 174 860 m 413 860 q 390 816 408 831 q 335 801 371 801 q 278 819 299 801 q 261 867 257 838 l 267 906 q 290 951 271 936 q 346 965 310 965 q 403 948 383 965 q 418 900 422 931 l 413 860 z "},"ì":{"ha":313,"x_min":11,"x_max":261,"o":"m 42 0 l 136 678 l 254 678 l 160 0 l 42 0 m 11 951 l 136 951 l 261 758 l 163 758 l 11 951 z "},"ī":{"ha":313,"x_min":42,"x_max":376,"o":"m 42 0 l 136 678 l 254 678 l 160 0 l 42 0 m 64 842 l 78 946 l 376 946 l 363 842 l 64 842 z "},"į":{"ha":313,"x_min":-67,"x_max":304,"o":"m 226 965 q 284 947 264 965 q 300 897 304 928 l 294 857 q 271 813 290 826 q 214 799 251 799 q 157 817 178 799 q 140 865 136 835 l 146 906 q 169 951 150 936 q 226 965 189 965 m 160 0 l 135 0 q 70 -52 94 -19 q 40 -121 46 -85 l 39 -135 q 38 -147 38 -139 q 50 -177 38 -168 q 90 -186 63 -186 q 136 -182 111 -186 l 125 -267 q 57 -274 94 -274 q -35 -249 -4 -274 q -67 -181 -67 -224 q -65 -161 -67 -168 l -62 -143 q -28 -63 -57 -103 q 42 3 0 -24 l 136 678 l 254 678 l 160 0 z "},"j":{"ha":313,"x_min":-172,"x_max":296,"o":"m 286 857 q 263 813 282 826 q 206 799 243 799 q 148 817 168 799 q 132 865 128 835 l 138 906 q 161 951 142 936 q 218 965 181 965 q 276 947 256 965 q 292 897 296 928 l 286 857 m 149 -71 q 85 -226 133 -178 q -60 -274 36 -274 q -119 -269 -86 -274 q -172 -257 -151 -264 l -158 -156 q -112 -167 -140 -162 q -58 -172 -83 -172 q 2 -153 -18 -172 q 29 -82 22 -135 l 136 678 l 254 678 l 149 -71 z "},"k":{"ha":622,"x_min":42,"x_max":581,"o":"m 276 949 q 260 714 274 814 l 254 674 l 168 332 l 172 329 l 176 332 q 285 593 219 492 q 443 694 351 694 q 542 653 504 694 q 581 544 581 611 q 528 395 581 463 q 372 290 475 328 l 525 0 l 394 0 q 242 318 315 175 q 410 397 356 338 q 464 529 464 457 q 449 578 464 560 q 408 596 433 596 q 313 526 361 596 q 228 347 265 456 q 176 128 192 238 l 160 0 l 42 0 l 131 636 q 158 949 154 806 l 276 949 z "},"ķ":{"ha":622,"x_min":42,"x_max":581,"o":"m 276 949 q 260 714 274 814 l 254 674 l 168 332 l 172 329 l 176 332 q 285 593 219 492 q 443 694 351 694 q 542 653 504 694 q 581 544 581 611 q 528 395 581 463 q 372 290 475 328 l 525 0 l 394 0 q 242 318 315 175 q 410 397 356 338 q 464 529 464 457 q 449 578 464 560 q 408 596 433 596 q 313 526 361 596 q 228 347 265 456 q 176 128 192 238 l 160 0 l 42 0 l 131 636 q 158 949 154 806 l 276 949 m 335 -169 q 314 -232 329 -199 l 275 -314 l 203 -314 l 239 -215 q 204 -169 204 -203 l 206 -157 l 210 -129 q 228 -90 214 -103 q 274 -78 243 -78 q 323 -91 306 -78 q 340 -128 340 -104 q 339 -142 340 -137 l 335 -169 z "},"l":{"ha":313,"x_min":42,"x_max":276,"o":"m 276 949 q 250 644 274 814 l 160 0 l 42 0 l 131 636 q 158 949 154 806 l 276 949 z "},"ĺ":{"ha":313,"x_min":42,"x_max":396,"o":"m 276 949 q 250 644 274 814 l 160 0 l 42 0 l 131 636 q 158 949 154 806 l 276 949 m 261 986 l 164 986 l 272 1151 l 396 1151 l 261 986 z "},"ľ":{"ha":386,"x_min":42,"x_max":456,"o":"m 450 874 q 429 811 444 844 l 390 729 l 318 729 l 354 828 q 319 874 319 840 l 321 886 l 325 914 q 344 953 329 940 q 389 965 358 965 q 438 952 421 965 q 456 915 456 939 q 454 901 456 906 l 450 874 m 276 949 q 250 644 274 814 l 160 0 l 42 0 l 131 636 q 158 949 154 806 l 276 949 z "},"ļ":{"ha":313,"x_min":15,"x_max":276,"o":"m 276 949 q 250 644 274 814 l 160 0 l 42 0 l 131 636 q 158 949 154 806 l 276 949 m 147 -169 q 126 -232 142 -199 l 88 -314 l 15 -314 l 51 -215 q 17 -169 17 -203 l 18 -157 l 22 -129 q 41 -90 26 -103 q 86 -78 56 -78 q 135 -91 118 -78 q 153 -128 153 -104 q 151 -142 153 -137 l 147 -169 z "},"ł":{"ha":326,"x_min":-12,"x_max":385,"o":"m 283 949 q 257 644 281 814 l 254 625 l 385 664 l 371 567 l 240 528 l 167 0 l 49 0 l 117 493 l -12 456 l 0 553 l 131 590 l 138 636 q 165 949 161 806 l 283 949 z "},"m":{"ha":1022,"x_min":42,"x_max":944,"o":"m 803 694 q 908 654 872 694 q 944 526 944 614 q 938 439 944 481 l 871 0 l 753 0 l 821 435 q 828 508 828 486 q 814 568 828 551 q 772 585 800 585 q 676 519 725 585 q 586 334 626 454 q 524 60 546 214 l 515 0 l 397 0 l 465 435 q 472 508 472 486 q 458 568 472 551 q 417 585 444 585 q 320 519 369 585 q 231 334 271 454 q 168 60 190 214 l 160 0 l 42 0 l 136 678 l 247 678 l 232 568 l 169 333 l 174 331 l 178 333 q 297 602 226 510 q 447 694 368 694 q 586 544 582 694 l 525 333 l 529 331 l 533 333 q 653 602 582 510 q 803 694 724 694 z "},"n":{"ha":674,"x_min":42,"x_max":596,"o":"m 454 694 q 560 654 524 694 q 596 526 596 614 q 589 439 596 481 l 522 0 l 404 0 l 474 442 q 479 506 479 475 q 465 567 479 549 q 422 585 450 585 q 322 519 374 585 q 229 330 271 453 q 165 42 188 207 l 160 0 l 42 0 l 136 678 l 247 678 l 232 568 l 169 333 l 174 331 l 178 333 q 299 602 226 510 q 454 694 371 694 z "},"ń":{"ha":674,"x_min":42,"x_max":596,"o":"m 454 694 q 560 654 524 694 q 596 526 596 614 q 589 439 596 481 l 522 0 l 404 0 l 474 442 q 479 506 479 475 q 465 567 479 549 q 422 585 450 585 q 322 519 374 585 q 229 330 271 453 q 165 42 188 207 l 160 0 l 42 0 l 136 678 l 247 678 l 232 568 l 169 333 l 174 331 l 178 333 q 299 602 226 510 q 454 694 371 694 m 422 758 l 324 758 l 449 951 l 574 951 l 422 758 z "},"ň":{"ha":674,"x_min":42,"x_max":596,"o":"m 454 694 q 560 654 524 694 q 596 526 596 614 q 589 439 596 481 l 522 0 l 404 0 l 474 442 q 479 506 479 475 q 465 567 479 549 q 422 585 450 585 q 322 519 374 585 q 229 330 271 453 q 165 42 188 207 l 160 0 l 42 0 l 136 678 l 247 678 l 232 568 l 169 333 l 174 331 l 178 333 q 299 602 226 510 q 454 694 371 694 m 383 865 l 581 958 l 568 856 l 372 758 l 207 864 l 219 958 l 383 865 z "},"ņ":{"ha":674,"x_min":42,"x_max":596,"o":"m 454 694 q 560 654 524 694 q 596 526 596 614 q 589 439 596 481 l 522 0 l 404 0 l 474 442 q 479 506 479 475 q 465 567 479 549 q 422 585 450 585 q 322 519 374 585 q 229 330 271 453 q 165 42 188 207 l 160 0 l 42 0 l 136 678 l 247 678 l 232 568 l 169 333 l 174 331 l 178 333 q 299 602 226 510 q 454 694 371 694 m 346 -169 q 325 -232 340 -199 l 286 -314 l 214 -314 l 250 -215 q 215 -169 215 -203 l 217 -157 l 221 -129 q 240 -90 225 -103 q 285 -78 254 -78 q 334 -91 317 -78 q 351 -128 351 -104 q 350 -142 351 -137 l 346 -169 z "},"ñ":{"ha":674,"x_min":42,"x_max":596,"o":"m 454 694 q 560 654 524 694 q 596 526 596 614 q 589 439 596 481 l 522 0 l 404 0 l 474 442 q 479 506 479 475 q 465 567 479 549 q 422 585 450 585 q 322 519 374 585 q 229 330 271 453 q 165 42 188 207 l 160 0 l 42 0 l 136 678 l 247 678 l 232 568 l 169 333 l 174 331 l 178 333 q 299 602 226 510 q 454 694 371 694 m 571 851 q 551 839 567 849 q 508 821 535 829 q 454 813 482 813 q 382 831 424 813 q 317 847 343 847 q 271 840 296 847 q 228 824 246 832 q 204 813 210 815 l 218 907 q 238 922 222 911 q 281 942 254 932 q 335 951 307 951 q 376 947 360 951 q 417 932 392 942 q 471 917 447 917 q 517 924 492 917 q 560 940 542 932 q 585 951 579 949 l 571 851 z "},"o":{"ha":656,"x_min":56,"x_max":582,"o":"m 551 244 q 467 51 535 118 q 285 -17 399 -17 q 115 38 174 -17 q 56 189 56 92 q 60 239 56 213 l 88 439 q 174 628 104 563 q 356 694 243 694 q 524 640 465 694 q 582 489 582 585 q 578 438 582 465 l 551 244 m 461 447 q 464 479 464 469 q 433 565 464 535 q 350 596 403 596 q 208 454 228 596 l 176 229 q 174 199 174 207 q 205 113 174 144 q 289 82 236 82 q 429 224 411 82 l 461 447 z "},"ó":{"ha":656,"x_min":56,"x_max":582,"o":"m 551 244 q 467 51 535 118 q 285 -17 399 -17 q 115 38 174 -17 q 56 189 56 92 q 60 239 56 213 l 88 439 q 174 628 104 563 q 356 694 243 694 q 524 640 465 694 q 582 489 582 585 q 578 438 582 465 l 551 244 m 461 447 q 464 479 464 469 q 433 565 464 535 q 350 596 403 596 q 208 454 228 596 l 176 229 q 174 199 174 207 q 205 113 174 144 q 289 82 236 82 q 429 224 411 82 l 461 447 m 399 758 l 300 758 l 425 951 l 550 951 l 399 758 z "},"ô":{"ha":656,"x_min":56,"x_max":582,"o":"m 551 244 q 467 51 535 118 q 285 -17 399 -17 q 115 38 174 -17 q 56 189 56 92 q 60 239 56 213 l 88 439 q 174 628 104 563 q 356 694 243 694 q 524 640 465 694 q 582 489 582 585 q 578 438 582 465 l 551 244 m 461 447 q 464 479 464 469 q 433 565 464 535 q 350 596 403 596 q 208 454 228 596 l 176 229 q 174 199 174 207 q 205 113 174 144 q 289 82 236 82 q 429 224 411 82 l 461 447 m 381 851 l 183 758 l 196 858 l 392 958 l 557 851 l 544 758 l 381 851 z "},"ö":{"ha":656,"x_min":56,"x_max":582,"o":"m 551 244 q 467 51 535 118 q 285 -17 399 -17 q 115 38 174 -17 q 56 189 56 92 q 60 239 56 213 l 88 439 q 174 628 104 563 q 356 694 243 694 q 524 640 465 694 q 582 489 582 585 q 578 438 582 465 l 551 244 m 461 447 q 464 479 464 469 q 433 565 464 535 q 350 596 403 596 q 208 454 228 596 l 176 229 q 174 199 174 207 q 205 113 174 144 q 289 82 236 82 q 429 224 411 82 l 461 447 m 324 860 q 301 816 319 831 q 246 801 283 801 q 189 819 210 801 q 172 867 168 838 l 178 906 q 257 965 186 965 q 314 948 294 965 q 329 900 333 931 l 324 860 m 563 860 q 540 816 558 831 q 485 801 521 801 q 428 819 449 801 q 411 867 407 838 l 417 906 q 440 951 421 936 q 496 965 460 965 q 553 948 533 965 q 568 900 572 931 l 563 860 z "},"ò":{"ha":656,"x_min":56,"x_max":582,"o":"m 551 244 q 467 51 535 118 q 285 -17 399 -17 q 115 38 174 -17 q 56 189 56 92 q 60 239 56 213 l 88 439 q 174 628 104 563 q 356 694 243 694 q 524 640 465 694 q 582 489 582 585 q 578 438 582 465 l 551 244 m 461 447 q 464 479 464 469 q 433 565 464 535 q 350 596 403 596 q 208 454 228 596 l 176 229 q 174 199 174 207 q 205 113 174 144 q 289 82 236 82 q 429 224 411 82 l 461 447 m 161 951 l 286 951 l 411 758 l 313 758 l 161 951 z "},"ő":{"ha":656,"x_min":56,"x_max":628,"o":"m 551 244 q 467 51 535 118 q 285 -17 399 -17 q 115 38 174 -17 q 56 189 56 92 q 60 239 56 213 l 88 439 q 174 628 104 563 q 356 694 243 694 q 524 640 465 694 q 582 489 582 585 q 578 438 582 465 l 551 244 m 461 447 q 464 479 464 469 q 433 565 464 535 q 350 596 403 596 q 208 454 228 596 l 176 229 q 174 199 174 207 q 205 113 174 144 q 289 82 236 82 q 429 224 411 82 l 461 447 m 433 951 l 306 758 l 204 758 l 322 951 l 433 951 m 628 951 l 500 758 l 399 758 l 517 951 l 628 951 z "},"ō":{"ha":656,"x_min":56,"x_max":582,"o":"m 551 244 q 467 51 535 118 q 285 -17 399 -17 q 115 38 174 -17 q 56 189 56 92 q 60 239 56 213 l 88 439 q 174 628 104 563 q 356 694 243 694 q 524 640 465 694 q 582 489 582 585 q 578 438 582 465 l 551 244 m 461 447 q 464 479 464 469 q 433 565 464 535 q 350 596 403 596 q 208 454 228 596 l 176 229 q 174 199 174 207 q 205 113 174 144 q 289 82 236 82 q 429 224 411 82 l 461 447 m 214 842 l 228 946 l 526 946 l 513 842 l 214 842 z "},"ø":{"ha":656,"x_min":-71,"x_max":710,"o":"m 568 571 q 582 488 582 535 q 578 438 582 465 l 551 244 q 467 51 535 118 q 285 -17 399 -17 q 128 25 188 -17 l 50 -71 l -71 -71 l 69 104 q 56 188 56 140 q 60 239 56 213 l 88 439 q 174 628 104 563 q 356 694 243 694 q 510 650 450 694 l 588 747 l 710 747 l 568 571 m 350 596 q 208 454 228 596 l 178 238 l 175 218 l 443 551 q 350 596 414 596 m 196 124 q 289 82 225 82 q 429 224 411 82 l 458 426 l 463 456 l 196 124 z "},"õ":{"ha":656,"x_min":56,"x_max":582,"o":"m 551 244 q 467 51 535 118 q 285 -17 399 -17 q 115 38 174 -17 q 56 189 56 92 q 60 239 56 213 l 88 439 q 174 628 104 563 q 356 694 243 694 q 524 640 465 694 q 582 489 582 585 q 578 438 582 465 l 551 244 m 461 447 q 464 479 464 469 q 433 565 464 535 q 350 596 403 596 q 208 454 228 596 l 176 229 q 174 199 174 207 q 205 113 174 144 q 289 82 236 82 q 429 224 411 82 l 461 447 m 547 851 q 527 839 543 849 q 485 821 511 829 q 431 813 458 813 q 358 831 400 813 q 293 847 319 847 q 247 840 272 847 q 204 824 222 832 q 181 813 186 815 l 194 907 q 215 922 199 911 q 257 942 231 932 q 311 951 283 951 q 352 947 336 951 q 393 932 368 942 q 447 917 424 917 q 493 924 468 917 q 537 940 518 932 q 561 951 556 949 l 547 851 z "},"œ":{"ha":978,"x_min":57,"x_max":935,"o":"m 738 694 q 883 647 831 694 q 935 519 935 600 q 840 333 935 410 q 550 240 746 257 l 546 215 q 543 185 543 193 q 571 110 543 136 q 650 85 599 85 q 747 97 696 85 q 844 133 799 110 l 824 26 q 733 -6 778 6 q 651 -17 688 -17 q 546 6 594 -17 q 467 74 497 29 q 283 -17 393 -17 q 115 38 172 -17 q 57 190 57 93 q 60 240 57 224 l 89 447 q 169 631 106 568 q 351 694 232 694 q 468 665 418 694 q 539 585 518 635 q 628 665 575 636 q 738 694 681 694 m 350 596 q 208 454 229 596 l 176 229 q 175 200 175 219 q 205 113 175 143 q 289 82 235 82 q 429 224 411 82 l 461 450 q 464 482 464 472 q 433 566 464 536 q 350 596 403 596 m 733 596 q 632 540 678 596 q 571 378 586 483 l 561 315 q 711 353 653 331 q 792 429 767 392 q 818 510 818 467 q 795 573 818 550 q 733 596 772 596 z "},"p":{"ha":663,"x_min":-17,"x_max":596,"o":"m 439 694 q 553 646 511 694 q 596 504 596 597 q 586 413 596 471 l 547 206 q 329 -17 506 -17 q 243 2 288 -17 q 165 53 199 21 q 100 -257 136 -124 l -17 -257 q 58 135 25 -96 l 136 678 l 247 678 l 236 597 l 172 353 l 175 350 l 179 353 q 292 609 229 524 q 439 694 356 694 m 411 589 q 318 531 365 589 q 235 381 271 474 q 185 186 199 288 l 178 138 q 238 101 204 115 q 300 88 272 88 q 385 119 353 88 q 432 222 418 151 l 468 406 q 476 485 476 451 q 458 563 476 538 q 411 589 440 589 z "},"þ":{"ha":663,"x_min":4,"x_max":596,"o":"m 249 636 l 172 353 l 175 350 l 179 353 q 292 609 229 524 q 439 694 356 694 q 553 646 511 694 q 596 504 596 597 q 586 413 596 471 l 547 206 q 329 -17 506 -17 q 243 2 288 -17 q 165 51 199 21 l 122 -257 l 4 -257 l 174 949 l 292 949 l 249 636 m 411 589 q 319 533 365 589 q 237 385 272 476 q 186 193 201 294 l 178 138 q 238 101 204 115 q 300 88 272 88 q 385 119 353 88 q 432 222 418 151 l 468 406 q 476 485 476 451 q 458 563 476 538 q 411 589 440 589 z "},"q":{"ha":661,"x_min":49,"x_max":603,"o":"m 315 694 q 405 672 363 694 q 482 610 447 650 l 492 678 l 603 678 l 471 -257 l 353 -257 l 396 39 l 465 264 l 463 267 l 458 265 q 203 -17 364 -17 q 91 31 133 -17 q 49 164 49 78 q 54 228 49 199 l 90 454 q 170 633 110 572 q 315 694 231 694 m 331 593 q 208 447 232 593 l 175 243 q 168 176 168 199 q 185 109 168 129 q 236 89 203 89 q 366 179 311 89 q 444 383 421 269 l 464 518 q 402 573 438 553 q 331 593 367 593 z "},"r":{"ha":451,"x_min":42,"x_max":464,"o":"m 464 692 l 442 543 q 406 547 425 547 q 260 411 324 547 q 168 63 196 275 l 160 0 l 42 0 l 136 678 l 247 678 l 232 568 l 169 333 l 174 331 l 178 333 q 295 602 226 510 q 442 694 364 694 l 464 692 z "},"ŕ":{"ha":451,"x_min":42,"x_max":497,"o":"m 464 692 l 442 543 q 406 547 425 547 q 260 411 324 547 q 168 63 196 275 l 160 0 l 42 0 l 136 678 l 247 678 l 232 568 l 169 333 l 174 331 l 178 333 q 295 602 226 510 q 442 694 364 694 l 464 692 m 346 758 l 247 758 l 372 951 l 497 951 l 346 758 z "},"ř":{"ha":451,"x_min":42,"x_max":504,"o":"m 464 692 l 442 543 q 406 547 425 547 q 260 411 324 547 q 168 63 196 275 l 160 0 l 42 0 l 136 678 l 247 678 l 232 568 l 169 333 l 174 331 l 178 333 q 295 602 226 510 q 442 694 364 694 l 464 692 m 307 865 l 504 958 l 492 856 l 296 758 l 131 864 l 143 958 l 307 865 z "},"ŗ":{"ha":451,"x_min":18,"x_max":464,"o":"m 464 692 l 442 543 q 406 547 425 547 q 260 411 324 547 q 168 63 196 275 l 160 0 l 42 0 l 136 678 l 247 678 l 232 568 l 169 333 l 174 331 l 178 333 q 295 602 226 510 q 442 694 364 694 l 464 692 m 150 -169 q 129 -232 144 -199 l 90 -314 l 18 -314 l 54 -215 q 19 -169 19 -203 l 21 -157 l 25 -129 q 44 -90 29 -103 q 89 -78 58 -78 q 138 -91 121 -78 q 156 -128 156 -104 q 154 -142 156 -137 l 150 -169 z "},"s":{"ha":535,"x_min":28,"x_max":469,"o":"m 300 694 q 379 687 333 694 q 469 667 425 679 l 453 560 q 340 596 379 588 l 290 599 q 186 528 197 599 l 185 519 q 183 504 183 514 q 198 457 183 478 q 240 424 213 436 l 354 371 q 435 304 407 347 q 464 207 464 261 q 463 183 464 192 l 460 161 q 392 32 450 81 q 236 -17 335 -17 q 130 -2 188 -17 q 28 36 72 13 l 46 143 q 112 112 74 128 q 179 88 150 96 q 233 83 213 83 q 346 172 332 83 l 347 181 q 349 196 349 186 q 334 242 349 221 q 294 276 319 264 l 183 328 q 98 396 126 354 q 69 490 69 438 q 72 526 69 514 l 76 549 q 300 694 103 694 z "},"ś":{"ha":535,"x_min":28,"x_max":485,"o":"m 300 694 q 379 687 333 694 q 469 667 425 679 l 453 560 q 340 596 379 588 l 290 599 q 186 528 197 599 l 185 519 q 183 504 183 514 q 198 457 183 478 q 240 424 213 436 l 354 371 q 435 304 407 347 q 464 207 464 261 q 463 183 464 192 l 460 161 q 392 32 450 81 q 236 -17 335 -17 q 130 -2 188 -17 q 28 36 72 13 l 46 143 q 112 112 74 128 q 179 88 150 96 q 233 83 213 83 q 346 172 332 83 l 347 181 q 349 196 349 186 q 334 242 349 221 q 294 276 319 264 l 183 328 q 98 396 126 354 q 69 490 69 438 q 72 526 69 514 l 76 549 q 300 694 103 694 m 333 758 l 235 758 l 360 951 l 485 951 l 333 758 z "},"š":{"ha":535,"x_min":28,"x_max":492,"o":"m 300 694 q 379 687 333 694 q 469 667 425 679 l 453 560 q 340 596 379 588 l 290 599 q 186 528 197 599 l 185 519 q 183 504 183 514 q 198 457 183 478 q 240 424 213 436 l 354 371 q 435 304 407 347 q 464 207 464 261 q 463 183 464 192 l 460 161 q 392 32 450 81 q 236 -17 335 -17 q 130 -2 188 -17 q 28 36 72 13 l 46 143 q 112 112 74 128 q 179 88 150 96 q 233 83 213 83 q 346 172 332 83 l 347 181 q 349 196 349 186 q 334 242 349 221 q 294 276 319 264 l 183 328 q 98 396 126 354 q 69 490 69 438 q 72 526 69 514 l 76 549 q 300 694 103 694 m 294 865 l 492 958 l 479 856 l 283 758 l 118 864 l 131 958 l 294 865 z "},"ş":{"ha":510,"x_min":15,"x_max":457,"o":"m 288 694 q 367 687 321 694 q 457 667 413 679 l 440 560 q 328 596 367 588 l 278 599 q 174 528 185 599 l 172 519 q 171 504 171 514 q 185 457 171 478 q 228 424 200 436 l 342 371 q 423 304 394 347 q 451 207 451 261 q 450 183 451 192 l 447 161 q 385 37 438 83 q 243 -15 333 -10 l 225 -57 l 228 -57 q 285 -80 264 -57 q 307 -140 307 -103 l 306 -156 l 304 -168 q 172 -274 292 -274 q 90 -261 133 -274 l 100 -185 q 163 -199 132 -199 q 197 -190 185 -199 q 211 -167 208 -181 l 213 -157 q 203 -123 215 -135 q 165 -111 192 -111 l 129 -111 l 133 -83 l 167 -11 q 15 36 78 3 l 33 143 q 99 112 61 128 q 167 88 138 96 q 221 83 200 83 q 333 172 319 83 l 335 181 q 336 196 336 186 q 322 242 336 221 q 282 276 307 264 l 171 328 q 85 396 114 354 q 57 490 57 438 q 60 526 57 514 l 64 549 q 288 694 90 694 z "},"ș":{"ha":535,"x_min":28,"x_max":469,"o":"m 300 694 q 379 687 333 694 q 469 667 425 679 l 453 560 q 340 596 379 588 l 290 599 q 186 528 197 599 l 185 519 q 183 504 183 514 q 198 457 183 478 q 240 424 213 436 l 354 371 q 435 304 407 347 q 464 207 464 261 q 463 183 464 192 l 460 161 q 392 32 450 81 q 236 -17 335 -17 q 130 -2 188 -17 q 28 36 72 13 l 46 143 q 112 112 74 128 q 179 88 150 96 q 233 83 213 83 q 346 172 332 83 l 347 181 q 349 196 349 186 q 334 242 349 221 q 294 276 319 264 l 183 328 q 98 396 126 354 q 69 490 69 438 q 72 526 69 514 l 76 549 q 300 694 103 694 m 294 -169 q 274 -232 289 -199 l 235 -314 l 163 -314 l 199 -215 q 164 -169 164 -203 l 165 -157 l 169 -129 q 188 -90 174 -103 q 233 -78 203 -78 q 283 -91 265 -78 q 300 -128 300 -104 q 299 -142 300 -137 l 294 -169 z "},"ß":{"ha":692,"x_min":63,"x_max":651,"o":"m 422 965 q 574 919 517 965 q 631 796 631 872 q 629 774 631 781 l 628 761 q 597 673 619 704 q 533 607 574 642 q 492 567 506 583 q 475 528 479 551 l 474 518 l 472 500 q 480 465 472 479 q 504 440 488 451 l 565 399 q 651 226 651 339 q 650 197 651 207 l 649 185 q 588 36 638 89 q 449 -17 538 -17 q 297 14 369 -17 l 313 114 q 413 82 376 90 q 440 81 422 81 q 497 107 472 81 q 528 179 522 133 l 532 210 q 533 226 533 215 q 522 275 533 253 q 489 311 510 297 l 426 353 q 374 409 390 376 q 357 486 357 442 l 358 510 l 360 522 q 385 596 364 568 q 443 656 406 624 q 490 702 474 682 q 510 751 506 722 l 513 774 q 492 841 518 814 q 415 868 465 868 q 340 842 364 868 q 307 756 315 817 l 201 0 l 83 0 l 164 581 l 63 581 l 72 650 l 178 669 l 183 713 q 258 906 201 846 q 422 965 315 965 z "},"t":{"ha":474,"x_min":46,"x_max":456,"o":"m 275 678 l 456 678 l 442 581 l 261 581 l 206 183 q 204 156 204 174 q 222 101 204 118 q 274 85 239 85 q 338 94 300 85 q 399 115 375 104 l 385 14 q 323 -8 361 1 q 257 -17 285 -17 q 127 20 169 -17 q 85 138 85 57 q 89 193 85 164 l 144 581 l 46 581 l 56 650 l 167 671 l 231 858 l 300 858 l 275 678 z "},"ť":{"ha":474,"x_min":46,"x_max":549,"o":"m 275 678 l 456 678 l 442 581 l 261 581 l 206 183 q 204 156 204 174 q 222 101 204 118 q 274 85 239 85 q 338 94 300 85 q 399 115 375 104 l 385 14 q 323 -8 361 1 q 257 -17 285 -17 q 127 20 169 -17 q 85 138 85 57 q 89 193 85 164 l 144 581 l 46 581 l 56 650 l 167 671 l 231 858 l 300 858 l 275 678 m 543 874 q 522 811 538 844 l 483 729 l 411 729 l 447 828 q 413 874 413 840 l 414 886 l 418 914 q 437 953 422 940 q 482 965 451 965 q 531 952 514 965 q 549 915 549 939 q 547 901 549 906 l 543 874 z "},"ţ":{"ha":469,"x_min":46,"x_max":456,"o":"m 275 678 l 456 678 l 442 581 l 261 581 l 206 183 q 204 156 204 174 q 222 101 204 118 q 274 85 239 85 q 338 94 300 85 q 399 115 375 104 l 385 14 q 324 -6 360 3 q 260 -17 288 -15 l 243 -57 l 246 -57 q 303 -80 282 -57 q 325 -140 325 -103 l 324 -156 l 322 -168 q 190 -274 310 -274 q 108 -261 151 -274 l 118 -185 q 181 -199 150 -199 q 215 -190 203 -199 q 229 -167 226 -181 l 231 -157 q 222 -123 233 -135 q 183 -111 210 -111 l 147 -111 l 151 -83 l 186 -8 q 85 138 85 17 q 89 193 85 164 l 144 581 l 46 581 l 56 650 l 167 671 l 231 858 l 300 858 l 275 678 z "},"ț":{"ha":474,"x_min":46,"x_max":456,"o":"m 275 678 l 456 678 l 442 581 l 261 581 l 206 183 q 204 156 204 174 q 222 101 204 118 q 274 85 239 85 q 338 94 300 85 q 399 115 375 104 l 385 14 q 323 -8 361 1 q 257 -17 285 -17 q 127 20 169 -17 q 85 138 85 57 q 89 193 85 164 l 144 581 l 46 581 l 56 650 l 167 671 l 231 858 l 300 858 l 275 678 m 296 -169 q 275 -232 290 -199 l 236 -314 l 164 -314 l 200 -215 q 165 -169 165 -203 l 167 -157 l 171 -129 q 190 -90 175 -103 q 235 -78 204 -78 q 284 -91 267 -78 q 301 -128 301 -104 q 300 -142 301 -137 l 296 -169 z "},"u":{"ha":675,"x_min":65,"x_max":618,"o":"m 522 0 l 411 0 l 417 39 l 481 264 l 478 267 l 474 265 q 218 -17 379 -17 q 106 30 147 -17 q 65 165 65 76 q 71 229 65 182 l 136 678 l 254 678 l 190 243 q 185 178 185 210 q 201 109 185 129 q 251 89 218 89 q 394 206 340 89 q 467 453 449 322 l 499 678 l 618 678 l 522 0 z "},"ú":{"ha":675,"x_min":65,"x_max":618,"o":"m 522 0 l 411 0 l 417 39 l 481 264 l 478 267 l 474 265 q 218 -17 379 -17 q 106 30 147 -17 q 65 165 65 76 q 71 229 65 182 l 136 678 l 254 678 l 190 243 q 185 178 185 210 q 201 109 185 129 q 251 89 218 89 q 394 206 340 89 q 467 453 449 322 l 499 678 l 618 678 l 522 0 m 419 758 l 321 758 l 446 951 l 571 951 l 419 758 z "},"û":{"ha":675,"x_min":65,"x_max":618,"o":"m 522 0 l 411 0 l 417 39 l 481 264 l 478 267 l 474 265 q 218 -17 379 -17 q 106 30 147 -17 q 65 165 65 76 q 71 229 65 182 l 136 678 l 254 678 l 190 243 q 185 178 185 210 q 201 109 185 129 q 251 89 218 89 q 394 206 340 89 q 467 453 449 322 l 499 678 l 618 678 l 522 0 m 401 851 l 204 758 l 217 858 l 413 958 l 578 851 l 565 758 l 401 851 z "},"ü":{"ha":675,"x_min":65,"x_max":618,"o":"m 522 0 l 411 0 l 417 39 l 481 264 l 478 267 l 474 265 q 218 -17 379 -17 q 106 30 147 -17 q 65 165 65 76 q 71 229 65 182 l 136 678 l 254 678 l 190 243 q 185 178 185 210 q 201 109 185 129 q 251 89 218 89 q 394 206 340 89 q 467 453 449 322 l 499 678 l 618 678 l 522 0 m 344 860 q 322 816 340 831 q 267 801 304 801 q 210 819 231 801 q 193 867 189 838 l 199 906 q 278 965 207 965 q 335 948 315 965 q 350 900 354 931 l 344 860 m 583 860 q 560 816 579 831 q 506 801 542 801 q 449 819 469 801 q 432 867 428 838 l 438 906 q 461 951 442 936 q 517 965 481 965 q 574 948 554 965 q 589 900 593 931 l 583 860 z "},"ù":{"ha":675,"x_min":65,"x_max":618,"o":"m 522 0 l 411 0 l 417 39 l 481 264 l 478 267 l 474 265 q 218 -17 379 -17 q 106 30 147 -17 q 65 165 65 76 q 71 229 65 182 l 136 678 l 254 678 l 190 243 q 185 178 185 210 q 201 109 185 129 q 251 89 218 89 q 394 206 340 89 q 467 453 449 322 l 499 678 l 618 678 l 522 0 m 182 951 l 307 951 l 432 758 l 333 758 l 182 951 z "},"ű":{"ha":675,"x_min":65,"x_max":649,"o":"m 522 0 l 411 0 l 417 39 l 481 264 l 478 267 l 474 265 q 218 -17 379 -17 q 106 30 147 -17 q 65 165 65 76 q 71 229 65 182 l 136 678 l 254 678 l 190 243 q 185 178 185 210 q 201 109 185 129 q 251 89 218 89 q 394 206 340 89 q 467 453 449 322 l 499 678 l 618 678 l 522 0 m 454 951 l 326 758 l 225 758 l 343 951 l 454 951 m 649 951 l 521 758 l 419 758 l 538 951 l 649 951 z "},"ū":{"ha":675,"x_min":65,"x_max":618,"o":"m 522 0 l 411 0 l 417 39 l 481 264 l 478 267 l 474 265 q 218 -17 379 -17 q 106 30 147 -17 q 65 165 65 76 q 71 229 65 182 l 136 678 l 254 678 l 190 243 q 185 178 185 210 q 201 109 185 129 q 251 89 218 89 q 394 206 340 89 q 467 453 449 322 l 499 678 l 618 678 l 522 0 m 235 842 l 249 946 l 547 946 l 533 842 l 235 842 z "},"ų":{"ha":675,"x_min":65,"x_max":618,"o":"m 522 0 l 500 0 q 435 -52 460 -19 q 406 -121 411 -85 l 404 -135 q 403 -147 403 -139 q 415 -177 403 -168 q 456 -186 428 -186 q 501 -182 476 -186 l 490 -267 q 422 -274 460 -274 q 330 -249 361 -274 q 299 -181 299 -224 q 300 -161 299 -168 l 303 -143 q 338 -61 308 -101 q 411 4 367 -21 l 417 39 l 481 264 l 478 267 l 474 265 q 218 -17 379 -17 q 106 30 147 -17 q 65 165 65 76 q 71 229 65 182 l 136 678 l 254 678 l 190 243 q 185 178 185 210 q 201 109 185 129 q 251 89 218 89 q 394 206 340 89 q 467 453 449 322 l 499 678 l 618 678 l 522 0 z "},"ů":{"ha":675,"x_min":65,"x_max":618,"o":"m 522 0 l 411 0 l 417 39 l 481 264 l 478 267 l 474 265 q 218 -17 379 -17 q 106 30 147 -17 q 65 165 65 76 q 71 229 65 182 l 136 678 l 254 678 l 190 243 q 185 178 185 210 q 201 109 185 129 q 251 89 218 89 q 394 206 340 89 q 467 453 449 322 l 499 678 l 618 678 l 522 0 m 400 1004 q 507 970 465 1004 q 549 881 549 936 q 506 775 549 815 q 383 735 463 735 q 277 769 319 735 q 235 860 235 803 q 278 965 235 926 q 400 1004 322 1004 m 397 933 q 338 917 356 933 q 321 865 321 901 q 339 822 321 839 q 389 806 357 806 q 447 823 431 806 q 464 878 464 840 q 447 919 464 904 q 397 933 429 933 z "},"v":{"ha":600,"x_min":53,"x_max":625,"o":"m 319 0 l 168 0 l 53 678 l 168 678 q 246 93 219 382 l 249 90 l 253 93 q 381 381 335 271 q 496 678 426 490 l 625 678 l 319 0 z "},"w":{"ha":942,"x_min":67,"x_max":953,"o":"m 706 0 l 554 0 l 496 575 l 274 0 l 124 0 l 67 678 l 188 678 q 208 186 208 432 l 208 104 l 213 101 l 215 104 q 428 678 314 342 l 588 678 q 639 104 625 419 l 642 101 l 646 104 q 828 678 740 358 l 953 678 l 706 0 z "},"x":{"ha":585,"x_min":-49,"x_max":601,"o":"m 360 350 l 522 0 l 394 0 q 282 263 346 126 l 279 265 l 275 263 q 93 0 167 100 l -49 0 l 210 350 l 60 678 l 190 678 q 292 438 228 597 l 294 435 l 299 438 q 461 678 372 540 l 601 678 l 360 350 z "},"y":{"ha":675,"x_min":60,"x_max":618,"o":"m 515 -50 q 438 -222 499 -169 q 258 -274 378 -274 q 160 -265 215 -274 q 60 -243 106 -257 l 74 -139 q 172 -163 121 -154 q 263 -172 222 -172 q 357 -145 326 -172 q 396 -60 388 -118 l 411 39 l 481 264 l 478 267 l 474 265 q 218 -17 379 -17 q 106 30 147 -17 q 65 165 65 76 q 71 229 65 182 l 136 678 l 254 678 l 190 243 q 185 178 185 210 q 201 109 185 129 q 251 89 218 89 q 394 206 340 89 q 467 453 449 322 l 499 678 l 618 678 l 515 -50 z "},"ý":{"ha":675,"x_min":60,"x_max":618,"o":"m 515 -50 q 438 -222 499 -169 q 258 -274 378 -274 q 160 -265 215 -274 q 60 -243 106 -257 l 74 -139 q 172 -163 121 -154 q 263 -172 222 -172 q 357 -145 326 -172 q 396 -60 388 -118 l 411 39 l 481 264 l 478 267 l 474 265 q 218 -17 379 -17 q 106 30 147 -17 q 65 165 65 76 q 71 229 65 182 l 136 678 l 254 678 l 190 243 q 185 178 185 210 q 201 109 185 129 q 251 89 218 89 q 394 206 340 89 q 467 453 449 322 l 499 678 l 618 678 l 515 -50 m 428 758 l 329 758 l 454 951 l 579 951 l 428 758 z "},"ÿ":{"ha":675,"x_min":60,"x_max":618,"o":"m 515 -50 q 438 -222 499 -169 q 258 -274 378 -274 q 160 -265 215 -274 q 60 -243 106 -257 l 74 -139 q 172 -163 121 -154 q 263 -172 222 -172 q 357 -145 326 -172 q 396 -60 388 -118 l 411 39 l 481 264 l 478 267 l 474 265 q 218 -17 379 -17 q 106 30 147 -17 q 65 165 65 76 q 71 229 65 182 l 136 678 l 254 678 l 190 243 q 185 178 185 210 q 201 109 185 129 q 251 89 218 89 q 394 206 340 89 q 467 453 449 322 l 499 678 l 618 678 l 515 -50 m 353 860 q 331 816 349 831 q 275 801 313 801 q 218 819 239 801 q 201 867 197 838 l 207 906 q 286 965 215 965 q 343 948 324 965 q 358 900 363 931 l 353 860 m 592 860 q 569 816 588 831 q 514 801 550 801 q 457 819 478 801 q 440 867 436 838 l 446 906 q 469 951 450 936 q 525 965 489 965 q 582 948 563 965 q 597 900 601 931 l 592 860 z "},"z":{"ha":557,"x_min":-7,"x_max":540,"o":"m 528 588 q 153 104 324 358 l 460 104 l 446 0 l -7 0 l 6 90 l 372 574 l 81 574 l 94 678 l 540 678 l 528 588 z "},"ź":{"ha":557,"x_min":-7,"x_max":540,"o":"m 528 588 q 153 104 324 358 l 460 104 l 446 0 l -7 0 l 6 90 l 372 574 l 81 574 l 94 678 l 540 678 l 528 588 m 369 758 l 271 758 l 396 951 l 521 951 l 369 758 z "},"ž":{"ha":557,"x_min":-7,"x_max":540,"o":"m 528 588 q 153 104 324 358 l 460 104 l 446 0 l -7 0 l 6 90 l 372 574 l 81 574 l 94 678 l 540 678 l 528 588 m 331 865 l 528 958 l 515 856 l 319 758 l 154 864 l 167 958 l 331 865 z "},"ż":{"ha":557,"x_min":-7,"x_max":540,"o":"m 528 588 q 153 104 324 358 l 460 104 l 446 0 l -7 0 l 6 90 l 372 574 l 81 574 l 94 678 l 540 678 l 528 588 m 415 857 q 392 813 411 826 q 335 799 372 799 q 277 817 297 799 q 261 865 257 835 l 267 906 q 290 951 271 936 q 347 965 310 965 q 405 947 385 965 q 421 897 425 928 l 415 857 z "},"ﬁ":{"ha":707,"x_min":-129,"x_max":649,"o":"m 415 965 q 491 958 446 965 q 575 939 536 950 l 560 835 q 483 860 525 850 q 413 869 442 869 q 340 844 364 869 q 307 756 317 818 l 296 678 l 649 678 l 554 0 l 436 0 l 517 581 l 282 581 l 196 -44 q 131 -219 179 -165 q -7 -274 82 -274 q -69 -268 -33 -274 q -129 -254 -106 -262 l -115 -156 q -15 -174 -64 -174 q 46 -147 25 -174 q 76 -51 67 -119 l 164 581 l 61 581 l 71 650 l 176 669 l 188 749 q 260 913 203 860 q 415 965 317 965 z "},"ﬂ":{"ha":721,"x_min":-122,"x_max":678,"o":"m 422 965 q 498 958 453 965 q 582 939 543 950 l 678 944 q 651 644 675 815 l 561 0 l 443 0 l 532 636 q 554 840 549 751 q 484 862 522 854 q 419 869 446 869 q 347 844 371 869 q 314 756 324 818 l 303 678 l 428 678 l 414 581 l 289 581 l 203 -44 q 137 -221 186 -168 q 0 -274 88 -274 q -62 -268 -26 -274 q -122 -254 -99 -262 l -108 -156 q -8 -174 -57 -174 q 53 -147 32 -174 q 83 -51 74 -119 l 171 581 l 68 581 l 78 650 l 183 669 l 194 749 q 266 912 210 858 q 422 965 322 965 z "},"ª":{"ha":651,"x_min":28,"x_max":624,"o":"m 336 926 q 427 902 383 926 q 503 844 471 878 l 513 910 l 624 910 l 542 314 l 429 314 l 440 394 l 497 568 l 494 571 l 490 569 q 236 297 397 297 q 124 347 165 297 q 82 483 82 396 q 88 546 82 517 l 113 692 q 189 867 131 807 q 336 926 247 926 m 356 821 q 272 790 303 821 q 229 681 242 758 l 208 561 q 201 493 201 517 q 269 403 201 403 q 401 494 346 403 q 478 697 456 585 l 486 750 q 425 801 461 782 q 356 821 389 821 m 513 101 l 499 0 l 28 0 l 42 101 l 513 101 z "},"º":{"ha":683,"x_min":49,"x_max":629,"o":"m 607 547 q 526 360 589 421 q 343 299 464 299 q 173 353 232 299 q 114 503 114 407 q 118 556 114 529 l 138 679 q 219 865 157 803 q 404 926 281 926 q 572 872 515 926 q 629 722 629 818 q 625 669 629 697 l 607 547 m 510 682 q 513 714 513 704 q 482 798 513 768 q 399 828 451 828 q 257 686 278 828 l 235 544 q 232 511 232 522 q 263 427 232 457 q 347 397 294 397 q 443 433 407 397 q 488 539 479 468 l 510 682 m 49 0 l 63 101 l 538 101 l 524 0 l 49 0 z "},"π":{"ha":742,"x_min":43,"x_max":742,"o":"m 728 581 l 631 581 l 571 147 q 569 125 569 139 q 581 90 569 100 q 621 79 593 79 q 683 92 649 79 l 671 -1 q 582 -17 622 -17 q 451 122 451 -17 q 456 178 451 149 l 513 581 l 268 581 l 188 0 l 69 0 l 150 581 l 146 581 q 95 575 125 581 q 43 561 65 569 l 57 658 q 132 672 85 667 q 222 678 179 678 l 742 678 l 728 581 z "},"¹":{"ha":556,"x_min":125,"x_max":488,"o":"m 447 1044 l 378 549 l 488 549 l 475 460 l 125 460 l 138 549 l 265 549 l 322 943 l 176 885 l 168 978 l 356 1044 l 447 1044 z "},"²":{"ha":556,"x_min":107,"x_max":525,"o":"m 346 1056 q 525 924 525 1056 q 524 896 525 906 l 522 885 q 489 793 515 836 q 404 696 463 750 l 246 549 l 475 549 l 463 460 l 107 460 l 118 538 l 357 779 q 399 828 385 807 q 417 882 413 850 l 418 894 q 326 967 426 967 q 256 958 296 967 q 188 938 217 950 l 200 1029 q 277 1048 236 1040 q 346 1056 318 1056 z "},"³":{"ha":556,"x_min":117,"x_max":497,"o":"m 332 1056 q 456 1020 414 1056 q 497 924 497 985 q 496 897 497 906 l 494 888 q 463 812 489 844 q 392 763 438 779 q 455 713 432 746 q 478 640 478 681 q 476 621 478 628 l 475 611 q 410 492 464 535 q 260 449 357 449 q 190 456 232 449 q 117 474 149 463 l 128 557 q 196 540 157 547 q 264 532 235 532 q 334 553 308 532 q 365 614 360 574 l 367 625 q 368 644 368 632 q 346 701 368 682 q 274 721 324 721 l 193 721 l 206 801 l 286 801 q 363 820 338 801 q 393 885 388 839 l 394 894 q 396 911 396 900 q 313 975 396 975 q 186 957 258 975 l 199 1039 q 332 1056 279 1056 z "},"⁄":{"ha":528,"x_min":-61,"x_max":594,"o":"m -61 0 l 479 835 l 594 835 l 54 0 l -61 0 z "},"½":{"ha":1419,"x_min":97,"x_max":1325,"o":"m 419 836 l 350 340 l 460 340 l 447 251 l 97 251 l 110 340 l 238 340 l 294 735 l 149 676 l 140 769 l 328 836 l 419 836 m 383 0 l 924 835 l 1039 835 l 499 0 l 383 0 m 1146 596 q 1325 464 1325 596 q 1324 436 1325 446 l 1322 425 q 1289 333 1315 376 q 1204 236 1263 290 l 1046 89 l 1275 89 l 1263 0 l 907 0 l 918 78 l 1157 319 q 1199 369 1185 347 q 1217 422 1213 390 l 1218 435 q 1126 507 1226 507 q 1056 499 1096 507 q 988 478 1017 490 l 1000 569 q 1077 588 1036 581 q 1146 596 1118 596 z "},"¼":{"ha":1394,"x_min":97,"x_max":1313,"o":"m 419 836 l 350 340 l 460 340 l 447 251 l 97 251 l 110 340 l 238 340 l 294 735 l 149 676 l 140 769 l 328 836 l 419 836 m 378 0 l 918 835 l 1033 835 l 493 0 l 378 0 m 1165 585 l 983 211 l 1129 211 l 1131 221 l 1156 397 l 1261 397 l 1235 211 l 1313 211 l 1301 125 l 1224 125 l 1206 0 l 1099 0 l 1117 125 l 879 125 l 858 183 l 1060 585 l 1165 585 z "},"¾":{"ha":1389,"x_min":53,"x_max":1313,"o":"m 268 847 q 392 812 350 847 q 433 715 433 776 q 432 689 433 697 l 431 679 q 399 603 425 636 q 328 554 374 571 q 391 505 368 538 q 414 432 414 472 q 413 413 414 419 l 411 403 q 347 283 400 326 q 196 240 293 240 q 126 247 168 240 q 53 265 85 254 l 64 349 q 132 331 93 339 q 200 324 171 324 q 270 344 244 324 q 301 406 296 365 l 303 417 q 304 436 304 424 q 282 493 304 474 q 210 513 260 513 l 129 513 l 142 593 l 222 593 q 299 612 274 593 q 329 676 324 631 l 331 686 q 332 703 332 692 q 249 767 332 767 q 122 749 194 767 l 135 831 q 268 847 215 847 m 378 0 l 918 835 l 1033 835 l 493 0 l 378 0 m 1165 585 l 983 211 l 1129 211 l 1131 221 l 1156 397 l 1261 397 l 1235 211 l 1313 211 l 1301 125 l 1224 125 l 1206 0 l 1099 0 l 1117 125 l 879 125 l 858 183 l 1060 585 l 1165 585 z "},"*":{"ha":569,"x_min":128,"x_max":544,"o":"m 383 965 l 369 810 l 513 871 l 544 779 l 390 744 l 493 628 l 414 571 l 335 704 l 256 569 l 178 628 l 281 746 l 128 779 l 160 871 l 301 811 l 288 965 l 383 965 z "},"\\":{"ha":444,"x_min":14,"x_max":417,"o":"m 132 949 l 417 0 l 299 0 l 14 949 l 132 949 z "},"·":{"ha":307,"x_min":25,"x_max":188,"o":"m 113 429 q 170 410 150 429 q 186 361 190 392 l 181 321 q 157 277 176 292 q 99 263 138 263 q 42 281 61 263 q 26 329 22 300 l 31 361 q 53 413 35 397 q 113 429 72 429 z "},"•":{"ha":326,"x_min":67,"x_max":250,"o":"m 164 465 q 226 447 203 465 q 250 399 250 429 l 249 388 l 242 346 q 215 293 235 308 q 151 278 194 278 q 90 295 114 278 q 67 343 67 313 q 68 356 67 351 l 75 396 q 101 449 81 432 q 164 465 122 465 z "},":":{"ha":307,"x_min":25,"x_max":260,"o":"m 113 150 q 170 131 150 150 q 186 82 190 113 l 181 42 q 157 -2 176 13 q 99 -17 138 -17 q 42 2 61 -17 q 26 50 22 21 l 31 82 q 53 134 35 118 q 113 150 72 150 m 185 664 q 242 645 222 664 q 258 596 263 626 l 253 556 q 229 512 249 526 q 171 497 210 497 q 114 516 133 497 q 99 564 94 535 l 103 596 q 126 648 107 632 q 185 664 144 664 z "},",":{"ha":306,"x_min":-11,"x_max":186,"o":"m 110 150 q 165 132 144 150 q 186 83 186 114 l 185 71 l 181 36 q 173 3 178 17 q 161 -26 168 -11 l 72 -224 l -11 -224 l 68 -12 q 35 13 46 -7 q 26 58 24 33 l 32 97 q 55 137 36 124 q 110 150 74 150 z "},"…":{"ha":768,"x_min":25,"x_max":649,"o":"m 343 150 q 401 131 381 150 q 417 82 421 113 l 411 42 q 388 -2 407 13 q 329 -17 368 -17 q 272 2 292 -17 q 257 50 253 21 l 261 82 q 284 134 265 118 q 343 150 303 150 m 113 150 q 170 131 150 150 q 186 82 190 113 l 181 42 q 157 -2 176 13 q 99 -17 138 -17 q 42 2 61 -17 q 26 50 22 21 l 31 82 q 53 134 35 118 q 113 150 72 150 m 574 150 q 631 131 611 150 q 647 82 651 113 l 642 42 q 618 -2 638 13 q 560 -17 599 -17 q 503 2 522 -17 q 488 50 483 21 l 492 82 q 515 134 496 118 q 574 150 533 150 z "},"!":{"ha":293,"x_min":15,"x_max":292,"o":"m 292 965 l 186 278 l 74 278 l 160 965 l 292 965 m 106 150 q 163 131 143 150 q 179 82 183 113 l 174 42 q 150 -2 169 13 q 92 -17 131 -17 q 35 2 54 -17 q 19 50 15 21 l 24 82 q 47 134 28 118 q 106 150 65 150 z "},"¡":{"ha":293,"x_min":-12,"x_max":264,"o":"m 174 560 q 116 578 136 560 q 100 628 96 597 l 106 668 q 129 712 110 697 q 188 726 149 726 q 244 708 225 726 q 260 660 264 689 l 256 628 q 233 576 251 592 q 174 560 214 560 m -12 -256 l 93 432 l 206 432 l 119 -256 l -12 -256 z "},"#":{"ha":772,"x_min":22,"x_max":768,"o":"m 682 851 l 657 678 l 768 678 l 754 581 l 643 581 l 600 271 l 711 271 l 697 174 l 586 174 l 563 0 l 444 0 l 468 174 l 251 174 l 228 0 l 110 0 l 133 174 l 22 174 l 36 271 l 147 271 l 190 581 l 79 581 l 93 678 l 204 678 l 229 851 l 347 851 l 322 678 l 539 678 l 564 851 l 682 851 m 525 581 l 308 581 l 265 271 l 482 271 l 525 581 z "},".":{"ha":307,"x_min":22,"x_max":190,"o":"m 113 150 q 170 131 150 150 q 186 82 190 113 l 181 42 q 157 -2 176 13 q 99 -17 138 -17 q 42 2 61 -17 q 26 50 22 21 l 31 82 q 53 134 35 118 q 113 150 72 150 z "},"?":{"ha":549,"x_min":83,"x_max":524,"o":"m 293 965 q 468 918 413 965 q 524 790 524 871 q 521 753 524 778 l 518 732 q 476 617 510 669 q 368 496 443 564 l 313 446 q 276 398 289 425 q 254 315 263 371 l 249 278 l 143 278 l 149 317 q 178 426 158 382 q 239 507 199 469 l 321 586 q 383 661 367 629 q 404 743 399 693 l 406 757 l 407 776 q 376 846 407 821 q 274 871 346 871 q 186 860 236 871 q 97 832 136 849 l 111 933 q 208 957 158 949 q 293 965 257 965 m 174 150 q 231 131 211 150 q 247 82 251 113 l 242 42 q 218 -2 238 13 q 160 -17 199 -17 q 103 2 122 -17 q 88 50 83 21 l 92 82 q 115 134 96 118 q 174 150 133 150 z "},"¿":{"ha":549,"x_min":10,"x_max":450,"o":"m 360 542 q 302 560 322 542 q 286 610 282 579 l 292 650 q 315 694 296 679 q 374 708 335 708 q 431 690 411 708 q 446 642 450 671 l 442 610 q 419 558 438 574 q 360 542 400 542 m 240 -274 q 65 -226 121 -274 q 10 -99 10 -179 q 13 -61 10 -86 l 15 -40 q 57 75 24 22 q 165 196 90 128 l 221 246 q 258 294 244 267 q 279 376 271 321 l 285 414 l 390 414 l 385 375 q 355 266 375 310 q 294 185 335 222 l 213 106 q 151 31 167 63 q 129 -51 135 -1 l 128 -65 l 126 -85 q 157 -154 126 -129 q 260 -179 188 -179 q 347 -168 297 -179 q 436 -140 397 -157 l 422 -242 q 326 -265 375 -257 q 240 -274 276 -274 z "},"\"":{"ha":438,"x_min":90,"x_max":451,"o":"m 257 949 l 208 596 l 90 596 l 139 949 l 257 949 m 451 949 l 403 596 l 285 596 l 333 949 l 451 949 z "},"'":{"ha":243,"x_min":90,"x_max":257,"o":"m 257 949 l 208 596 l 90 596 l 139 949 l 257 949 z "},";":{"ha":307,"x_min":-11,"x_max":260,"o":"m 110 150 q 165 132 144 150 q 186 83 186 114 l 185 71 l 181 36 q 173 3 178 17 q 161 -26 168 -11 l 72 -224 l -11 -224 l 68 -12 q 35 13 46 -7 q 26 58 24 33 l 32 97 q 55 137 36 124 q 110 150 74 150 m 185 664 q 242 645 222 664 q 258 596 263 626 l 253 556 q 229 512 249 526 q 171 497 210 497 q 114 516 133 497 q 99 564 94 535 l 103 596 q 126 648 107 632 q 185 664 144 664 z "},"/":{"ha":382,"x_min":-69,"x_max":465,"o":"m 465 949 l 49 0 l -69 0 l 347 949 l 465 949 z "},"_":{"ha":847,"x_min":-3,"x_max":678,"o":"m 678 -167 l 664 -257 l -3 -257 l 11 -167 l 678 -167 z "},"{":{"ha":356,"x_min":10,"x_max":463,"o":"m 449 940 q 390 946 417 946 q 338 924 353 946 q 314 838 324 903 l 282 624 q 247 515 272 553 q 178 464 222 478 q 225 427 210 453 q 240 358 240 401 q 236 304 240 336 l 206 93 q 200 39 200 49 q 223 -17 200 -3 q 308 -31 246 -31 l 294 -128 q 167 -115 213 -128 q 102 -72 122 -103 q 82 18 82 -40 q 92 122 82 51 l 118 304 q 122 346 122 328 q 104 399 122 383 q 44 415 86 415 l 10 415 l 22 513 l 57 513 q 131 536 108 513 q 164 624 154 560 l 192 811 q 224 954 206 904 q 278 1026 243 1004 q 376 1047 314 1047 q 463 1040 407 1047 l 449 940 z "},"}":{"ha":356,"x_min":-89,"x_max":363,"o":"m 76 1038 q 203 1025 158 1038 q 269 981 249 1013 q 289 892 289 950 q 279 788 289 858 l 254 624 q 250 582 250 601 q 268 528 250 544 q 328 513 286 513 l 363 513 l 350 415 l 315 415 q 240 392 264 415 q 208 304 217 368 l 182 99 q 151 -44 169 6 q 97 -116 132 -94 q -3 -137 61 -137 q -89 -131 -33 -137 l -75 -31 q -17 -36 -43 -36 q 36 -14 21 -36 q 60 72 51 8 l 90 304 q 125 412 100 374 q 194 464 150 450 q 147 501 163 475 q 132 569 132 526 q 136 624 132 593 l 165 817 q 171 871 171 861 q 148 926 171 913 q 63 940 125 940 l 76 1038 z "},"[":{"ha":361,"x_min":22,"x_max":472,"o":"m 472 1038 l 458 940 l 292 940 l 154 -31 l 321 -31 l 307 -128 l 22 -128 l 188 1038 l 472 1038 z "},"]":{"ha":361,"x_min":-94,"x_max":354,"o":"m 354 1038 l 189 -128 l -94 -128 l -81 -31 l 85 -31 l 222 940 l 56 940 l 69 1038 l 354 1038 z "},"(":{"ha":321,"x_min":49,"x_max":428,"o":"m 414 940 q 358 946 369 946 q 304 927 319 946 q 282 860 289 908 l 172 97 q 167 40 167 53 q 189 -14 167 0 q 274 -31 211 -28 l 260 -131 q 133 -117 178 -131 q 69 -72 89 -104 q 49 19 49 -39 q 58 125 49 54 l 158 819 q 190 956 171 908 q 244 1026 208 1004 q 342 1047 279 1047 q 428 1040 375 1047 l 414 940 z "},")":{"ha":321,"x_min":-90,"x_max":288,"o":"m 76 1040 q 203 1027 158 1040 q 267 981 247 1014 q 288 890 288 949 q 278 785 288 856 l 179 90 q 148 -47 167 1 q 94 -116 129 -94 q -4 -137 58 -137 q -90 -131 -37 -137 l -76 -31 q -21 -36 -32 -36 q 33 -17 18 -36 q 56 50 49 1 l 164 813 q 169 869 169 857 q 147 924 169 910 q 63 940 125 938 l 76 1040 z "},"—":{"ha":986,"x_min":85,"x_max":904,"o":"m 904 456 l 890 365 l 85 365 l 99 456 l 904 456 z "},"–":{"ha":847,"x_min":85,"x_max":765,"o":"m 765 456 l 751 365 l 85 365 l 99 456 l 765 456 z "},"-":{"ha":486,"x_min":85,"x_max":404,"o":"m 404 456 l 390 365 l 85 365 l 99 456 l 404 456 z "},"­":{"ha":833,"x_min":85,"x_max":404,"o":"m 404 456 l 390 365 l 85 365 l 99 456 l 404 456 z "},"«":{"ha":678,"x_min":96,"x_max":626,"o":"m 390 608 l 228 372 l 324 136 l 201 136 l 96 372 l 268 608 l 390 608 m 626 608 l 464 372 l 560 136 l 438 136 l 332 372 l 504 608 l 626 608 z "},"»":{"ha":678,"x_min":63,"x_max":593,"o":"m 251 608 l 357 372 l 185 136 l 63 136 l 225 372 l 129 608 l 251 608 m 488 608 l 593 372 l 421 136 l 299 136 l 461 372 l 365 608 l 488 608 z "},"‹":{"ha":442,"x_min":96,"x_max":390,"o":"m 390 608 l 228 372 l 324 136 l 201 136 l 96 372 l 268 608 l 390 608 z "},"›":{"ha":442,"x_min":63,"x_max":357,"o":"m 251 608 l 357 372 l 185 136 l 63 136 l 225 372 l 129 608 l 251 608 z "},"„":{"ha":503,"x_min":15,"x_max":383,"o":"m 113 146 q 167 127 149 146 q 182 78 186 108 l 176 36 q 157 -28 171 0 l 97 -150 l 15 -150 l 67 -12 q 35 12 46 -7 q 28 54 25 31 l 33 92 q 57 133 38 121 q 113 146 76 146 m 310 146 q 365 127 346 146 q 379 78 383 108 l 374 36 q 354 -28 368 0 l 294 -150 l 213 -150 l 264 -12 q 233 12 243 -7 q 225 54 222 31 l 231 92 q 254 133 235 121 q 310 146 274 146 z "},"“":{"ha":503,"x_min":121,"x_max":489,"o":"m 240 828 q 272 803 261 822 q 279 761 282 785 l 274 724 q 250 682 269 694 q 194 669 231 669 q 140 688 158 669 q 125 738 121 707 l 131 779 q 150 843 136 815 l 210 965 l 292 965 l 240 828 m 438 828 q 469 803 458 822 q 476 761 479 785 l 471 724 q 447 682 467 694 q 392 669 428 669 q 337 688 356 669 q 322 738 318 707 l 328 779 q 347 843 333 815 l 407 965 l 489 965 l 438 828 z "},"”":{"ha":503,"x_min":132,"x_max":500,"o":"m 229 965 q 284 947 265 965 q 299 897 303 928 l 293 856 q 274 792 288 819 l 214 669 l 132 669 l 183 807 q 152 831 163 813 q 144 874 142 850 l 150 911 q 174 953 154 940 q 229 965 193 965 m 426 965 q 481 947 463 965 q 496 897 500 928 l 490 856 q 471 792 485 819 l 411 669 l 329 669 l 381 807 q 349 831 360 813 q 342 874 339 850 l 347 911 q 371 953 351 940 q 426 965 390 965 z "},"‘":{"ha":301,"x_min":121,"x_max":292,"o":"m 240 828 q 272 803 261 822 q 279 761 282 785 l 274 724 q 250 682 269 694 q 194 669 231 669 q 140 688 158 669 q 125 738 121 707 l 131 779 q 150 843 136 815 l 210 965 l 292 965 l 240 828 z "},"’":{"ha":301,"x_min":131,"x_max":301,"o":"m 228 965 q 283 947 264 965 q 297 897 301 928 l 292 856 q 272 792 286 819 l 213 669 l 131 669 l 182 807 q 151 831 161 813 q 143 874 140 850 l 149 911 q 172 953 153 940 q 228 965 192 965 z "},"‚":{"ha":301,"x_min":14,"x_max":185,"o":"m 111 146 q 166 127 147 146 q 181 78 185 108 l 175 36 q 156 -28 169 0 l 96 -150 l 14 -150 l 65 -12 q 34 12 44 -7 q 26 54 24 31 l 32 92 q 56 133 36 121 q 111 146 75 146 z "},"€":{"ha":631,"x_min":6,"x_max":643,"o":"m 440 857 q 643 824 529 857 l 624 715 q 438 754 518 754 q 323 713 363 754 q 272 582 283 672 l 268 550 l 529 550 l 488 453 l 254 453 l 243 367 l 504 367 l 463 269 l 231 269 l 229 258 q 226 215 226 228 q 258 120 226 149 q 360 92 290 92 q 451 103 406 92 q 558 138 497 114 l 547 26 q 444 -5 500 7 q 342 -17 388 -17 q 107 211 107 -17 q 110 257 107 224 l 111 269 l 6 269 l 47 367 l 124 367 l 136 453 l 31 453 l 72 550 l 149 550 l 153 578 q 243 791 175 725 q 440 857 311 857 z "},"¢":{"ha":542,"x_min":49,"x_max":496,"o":"m 172 242 q 169 197 169 225 q 194 113 169 139 q 268 88 219 88 q 350 99 307 88 q 432 133 393 111 l 419 26 q 304 -11 356 -3 l 289 -122 l 185 -122 l 200 -12 q 88 50 126 0 q 49 183 49 100 q 53 240 49 211 l 82 446 q 299 693 114 672 l 314 800 l 418 800 l 403 690 q 496 669 443 685 l 479 564 q 336 594 397 594 q 246 560 281 594 q 201 456 211 525 l 172 242 z "},"¤":{"ha":653,"x_min":0,"x_max":660,"o":"m 660 649 l 564 565 q 575 496 575 529 q 571 449 575 474 l 567 421 q 519 296 557 353 l 597 207 l 510 129 l 435 217 q 293 183 375 183 q 163 214 214 183 l 68 129 l 0 207 l 99 292 q 82 379 82 332 q 85 421 82 390 l 89 449 q 132 569 99 519 l 63 649 l 151 726 l 215 650 q 364 686 281 686 q 504 647 450 686 l 593 726 l 660 649 m 350 585 q 248 547 285 585 q 203 449 211 510 l 199 421 q 196 389 196 399 q 223 312 196 340 q 307 283 250 283 q 408 321 372 283 q 453 421 444 358 l 457 449 q 460 481 460 471 q 433 557 460 529 q 350 585 407 585 z "},"$":{"ha":613,"x_min":43,"x_max":579,"o":"m 436 847 q 579 813 519 836 l 561 707 q 406 749 474 735 q 364 750 393 750 q 207 643 225 750 l 206 635 q 203 601 203 610 q 294 483 203 514 l 378 454 q 554 242 554 392 q 550 197 554 221 l 549 188 q 483 47 536 96 q 315 -14 429 -3 l 299 -131 l 194 -131 l 211 -15 q 124 0 169 -11 q 43 26 79 11 l 58 135 q 222 86 146 99 q 253 85 233 85 q 383 110 343 85 q 429 192 422 136 l 432 213 q 433 232 433 219 q 408 299 433 271 q 326 347 382 328 l 249 375 q 122 458 161 407 q 82 585 82 510 q 88 650 82 618 l 89 658 q 162 797 104 750 q 333 850 219 844 l 349 965 l 453 965 l 436 847 z "},"ƒ":{"ha":435,"x_min":31,"x_max":489,"o":"m 382 851 q 435 847 404 851 q 489 836 467 843 l 476 739 q 374 756 417 756 q 308 730 332 756 q 276 642 285 704 l 265 564 l 390 564 l 376 467 l 251 467 l 151 -257 l 32 -257 l 133 467 l 31 467 l 40 536 l 146 556 l 157 635 q 382 851 188 851 z "},"£":{"ha":551,"x_min":7,"x_max":543,"o":"m 385 851 q 465 843 417 851 q 543 824 514 835 l 529 724 q 458 745 497 736 q 388 754 418 754 q 306 729 333 754 q 269 646 278 704 l 253 521 l 385 521 l 371 424 l 239 424 l 219 283 q 192 169 210 207 q 138 103 175 131 l 503 103 l 489 0 l 7 0 l 18 83 q 96 244 83 150 l 121 424 l 24 424 l 38 521 l 135 521 l 151 639 q 223 801 167 750 q 385 851 279 851 z "},"¥":{"ha":632,"x_min":54,"x_max":700,"o":"m 399 360 l 499 360 l 486 263 l 354 263 l 346 206 l 478 206 l 464 108 l 333 108 l 319 0 l 201 0 l 215 108 l 83 108 l 97 206 l 228 206 l 236 263 l 106 263 l 119 360 l 218 360 l 54 835 l 181 835 q 307 389 247 635 q 561 835 457 636 l 700 835 l 399 360 z "},"+":{"ha":542,"x_min":19,"x_max":528,"o":"m 363 678 l 333 467 l 528 467 l 514 368 l 319 368 l 289 157 l 183 157 l 214 368 l 19 368 l 33 467 l 228 467 l 257 678 l 363 678 z "},"−":{"ha":542,"x_min":21,"x_max":526,"o":"m 526 465 l 513 368 l 21 368 l 35 465 l 526 465 z "},"×":{"ha":542,"x_min":33,"x_max":513,"o":"m 453 636 l 513 567 l 344 419 l 474 269 l 388 196 l 258 344 l 93 199 l 33 268 l 199 414 l 72 564 l 156 639 l 285 489 l 453 636 z "},"÷":{"ha":542,"x_min":21,"x_max":526,"o":"m 310 679 q 356 667 340 679 q 371 631 371 654 l 369 618 l 367 594 q 343 551 363 567 q 290 535 324 535 q 246 547 261 535 q 231 583 231 560 l 232 594 l 235 618 q 258 663 239 647 q 310 679 278 679 m 526 465 l 513 368 l 21 368 l 35 465 l 526 465 m 257 299 q 302 286 286 299 q 318 251 318 274 q 317 238 318 242 l 313 214 q 289 170 308 186 q 236 154 269 154 q 192 167 207 154 q 176 203 176 179 l 178 214 l 182 238 q 257 299 193 299 z "},"=":{"ha":542,"x_min":4,"x_max":543,"o":"m 543 585 l 529 488 l 38 488 l 51 585 l 543 585 m 510 347 l 496 250 l 4 250 l 18 347 l 510 347 z "},"≠":{"ha":542,"x_min":4,"x_max":543,"o":"m 522 672 l 454 585 l 543 585 l 529 488 l 381 488 l 274 347 l 510 347 l 496 250 l 199 250 l 131 160 l 25 160 l 93 250 l 4 250 l 18 347 l 168 347 l 275 488 l 38 488 l 51 585 l 349 585 l 417 672 l 522 672 z "},">":{"ha":542,"x_min":-17,"x_max":529,"o":"m 61 686 l 529 464 l 515 360 l -17 138 l 0 253 l 406 413 l 44 571 l 61 686 z "},"<":{"ha":542,"x_min":15,"x_max":561,"o":"m 561 686 l 544 571 l 139 413 l 500 253 l 483 138 l 15 360 l 29 464 l 561 686 z "},"≥":{"ha":542,"x_min":-35,"x_max":529,"o":"m 61 686 l 529 464 l 515 360 l -17 138 l 0 253 l 406 413 l 44 571 l 61 686 m 478 97 l 465 0 l -35 0 l -22 97 l 478 97 z "},"≤":{"ha":542,"x_min":-35,"x_max":561,"o":"m 561 686 l 544 571 l 139 413 l 500 253 l 483 138 l 15 360 l 29 464 l 561 686 m 478 97 l 465 0 l -35 0 l -22 97 l 478 97 z "},"±":{"ha":542,"x_min":-33,"x_max":528,"o":"m 363 678 l 333 467 l 528 467 l 514 368 l 319 368 l 289 157 l 183 157 l 214 368 l 19 368 l 33 467 l 228 467 l 257 678 l 363 678 m 474 97 l 461 0 l -33 0 l -21 97 l 474 97 z "},"≈":{"ha":542,"x_min":6,"x_max":544,"o":"m 531 501 q 506 489 525 499 q 454 471 486 479 q 386 463 422 463 q 330 467 353 463 q 278 482 307 472 q 228 497 250 492 q 175 501 207 501 q 122 494 153 501 q 66 478 90 486 q 35 467 42 469 l 49 564 q 73 576 54 567 q 124 594 92 586 q 192 603 156 603 q 249 598 225 603 q 303 583 272 593 q 353 569 331 574 q 404 564 375 564 q 458 572 426 564 q 513 588 489 579 q 544 599 538 596 l 531 501 m 501 293 q 476 281 496 290 q 425 263 457 271 q 357 254 393 254 q 301 259 324 254 q 249 274 278 264 q 199 288 221 283 q 146 293 178 293 q 92 285 124 293 q 37 269 61 278 q 6 258 13 261 l 18 356 q 43 368 24 358 q 94 386 63 378 q 163 394 126 394 q 219 390 196 394 q 272 375 243 385 q 322 360 300 365 q 374 356 344 356 q 428 363 396 356 q 484 379 460 371 q 515 390 508 388 l 501 293 z "},"~":{"ha":542,"x_min":18,"x_max":529,"o":"m 515 388 q 490 375 510 385 q 439 357 471 365 q 371 349 407 349 q 315 353 338 349 q 263 368 292 358 q 213 383 235 378 q 160 388 192 388 q 106 380 138 388 q 49 364 74 372 q 18 353 25 356 l 32 450 q 57 463 38 453 q 108 481 76 472 q 176 489 140 489 q 233 484 210 489 q 286 469 257 479 q 336 455 314 460 q 388 450 358 450 q 442 458 410 450 q 498 474 474 465 q 529 485 522 482 l 515 388 z "},"¬":{"ha":542,"x_min":15,"x_max":531,"o":"m 531 465 l 486 157 l 381 157 l 411 368 l 15 368 l 29 465 l 531 465 z "},"∞":{"ha":718,"x_min":18,"x_max":714,"o":"m 533 600 q 669 558 625 600 q 714 439 714 515 q 713 414 714 422 l 711 399 q 494 224 688 224 q 408 242 446 224 q 350 292 369 261 q 201 224 289 224 q 64 267 110 224 q 18 386 18 310 q 19 410 18 401 l 21 425 q 83 555 28 510 q 238 600 138 600 q 326 581 286 600 q 385 532 365 563 q 533 600 446 600 m 228 503 q 133 419 140 503 l 132 404 q 211 321 125 321 q 307 404 300 321 l 308 419 q 228 503 315 503 m 521 503 q 426 419 433 503 l 425 404 q 504 321 418 321 q 600 404 593 321 l 601 419 q 521 503 608 503 z "},"∫":{"ha":439,"x_min":-112,"x_max":536,"o":"m 429 965 q 483 961 451 965 q 536 950 514 957 l 524 853 q 422 869 464 869 q 357 844 381 869 q 324 756 333 818 l 213 -44 q 148 -219 196 -165 q 10 -274 100 -274 q -53 -268 -17 -274 q -112 -254 -89 -262 l -99 -156 q 1 -174 -47 -174 q 63 -147 42 -174 q 93 -51 83 -119 l 204 749 q 429 965 235 965 z "},"Ω":{"ha":800,"x_min":42,"x_max":732,"o":"m 449 926 q 659 859 586 926 q 732 671 732 792 q 729 617 732 635 l 693 328 q 662 201 683 250 q 594 111 640 153 l 685 111 l 675 0 l 397 0 l 406 107 l 418 107 q 521 154 479 107 q 572 286 563 201 l 613 632 q 614 663 614 643 q 568 781 614 740 q 442 822 522 822 q 240 646 260 822 l 204 300 q 203 263 203 288 q 233 147 203 188 q 315 107 264 107 l 328 107 l 319 0 l 42 0 l 53 111 l 144 111 q 83 278 83 169 q 88 342 83 307 l 124 635 q 217 856 142 786 q 449 926 292 926 z "},"∆":{"ha":725,"x_min":-7,"x_max":658,"o":"m 486 910 l 658 79 l 651 0 l -7 0 l 4 79 l 346 910 l 486 910 m 401 801 q 129 106 282 454 l 528 106 q 401 801 488 428 z "},"∏":{"ha":799,"x_min":36,"x_max":867,"o":"m 867 910 l 851 799 l 726 799 l 597 -257 l 479 -257 l 608 799 l 282 799 l 153 -257 l 36 -257 l 164 799 l 40 799 l 56 910 l 867 910 z "},"∑":{"ha":554,"x_min":-76,"x_max":607,"o":"m 607 910 l 593 803 l 188 803 l 400 356 l 394 301 l 82 -150 l 475 -150 l 463 -257 l -76 -257 l -64 -164 l 285 331 l 54 817 l 67 910 l 607 910 z "},"√":{"ha":667,"x_min":67,"x_max":854,"o":"m 842 851 l 725 851 l 325 0 l 172 0 l 67 678 l 185 678 q 254 86 225 407 q 646 949 474 514 l 854 949 l 842 851 z "},"∂":{"ha":640,"x_min":50,"x_max":576,"o":"m 211 965 q 483 869 390 965 q 576 588 576 774 q 567 465 576 540 l 533 229 q 455 44 517 106 q 276 -17 393 -17 q 108 33 165 -17 q 50 178 50 83 q 54 232 50 203 l 76 392 q 142 558 92 506 q 281 610 193 610 q 377 583 331 610 q 453 501 424 556 l 458 536 q 464 607 464 569 q 393 806 464 736 q 199 876 322 876 l 211 965 m 296 504 q 226 472 253 504 q 189 367 199 440 l 167 211 q 165 186 165 203 q 195 109 165 136 q 279 82 225 82 q 372 113 340 82 q 411 206 403 143 l 438 390 q 374 475 413 446 q 296 504 335 504 z "},"µ":{"ha":667,"x_min":-17,"x_max":618,"o":"m 522 0 l 411 0 l 417 39 l 481 264 l 478 267 l 474 265 q 218 -17 379 -17 q 156 1 182 -17 q 100 -257 135 -131 l -17 -257 q 67 199 24 -101 l 136 678 l 254 678 l 190 243 q 185 178 185 210 q 201 109 185 129 q 251 89 218 89 q 394 206 340 89 q 467 453 449 322 l 499 678 l 618 678 l 522 0 z "},"%":{"ha":1194,"x_min":88,"x_max":1136,"o":"m 340 868 q 487 821 436 868 q 538 686 538 774 q 535 640 538 656 l 529 599 q 288 382 500 382 q 140 433 193 382 q 88 569 88 483 q 92 619 88 593 l 99 661 q 174 818 117 768 q 340 868 232 868 m 968 851 l 383 0 l 257 0 l 842 851 l 968 851 m 329 764 q 251 737 279 764 q 215 650 224 710 l 210 608 q 207 576 207 586 q 299 486 207 486 q 376 513 349 486 q 411 601 403 540 l 417 643 q 419 675 419 665 q 329 764 419 764 m 939 469 q 1085 422 1035 469 q 1136 288 1136 375 q 1133 242 1136 257 l 1128 200 q 886 -17 1099 -17 q 739 34 792 -17 q 686 171 686 85 q 690 221 686 194 l 697 263 q 773 419 715 369 q 939 469 831 469 m 928 365 q 850 338 878 365 q 814 251 822 311 l 808 210 q 806 178 806 188 q 897 88 806 88 q 974 115 947 88 q 1010 203 1001 142 l 1015 244 q 1018 276 1018 267 q 928 365 1018 365 z "},"‰":{"ha":1722,"x_min":88,"x_max":1663,"o":"m 340 868 q 487 821 436 868 q 538 686 538 774 q 535 640 538 656 l 529 599 q 288 382 500 382 q 140 433 193 382 q 88 569 88 483 q 92 619 88 593 l 99 661 q 174 818 117 768 q 340 868 232 868 m 968 851 l 383 0 l 257 0 l 842 851 l 968 851 m 329 764 q 251 737 279 764 q 215 650 224 710 l 210 608 q 207 576 207 586 q 299 486 207 486 q 376 513 349 486 q 411 601 403 540 l 417 643 q 419 675 419 665 q 329 764 419 764 m 939 469 q 1085 422 1035 469 q 1136 288 1136 375 q 1133 242 1136 257 l 1128 200 q 886 -17 1099 -17 q 739 34 792 -17 q 686 171 686 85 q 690 221 686 194 l 697 263 q 773 419 715 369 q 939 469 831 469 m 1465 469 q 1612 422 1561 469 q 1663 288 1663 375 q 1660 242 1663 257 l 1654 200 q 1413 -17 1625 -17 q 1265 34 1318 -17 q 1213 171 1213 85 q 1217 221 1213 194 l 1224 263 q 1299 419 1242 369 q 1465 469 1357 469 m 928 365 q 850 338 878 365 q 814 251 822 311 l 808 210 q 806 178 806 188 q 897 88 806 88 q 974 115 947 88 q 1010 203 1001 142 l 1015 244 q 1018 276 1018 267 q 928 365 1018 365 m 1454 365 q 1376 338 1404 365 q 1340 251 1349 311 l 1335 210 q 1332 178 1332 188 q 1424 88 1332 88 q 1501 115 1474 88 q 1536 203 1528 142 l 1542 244 q 1544 276 1544 267 q 1454 365 1544 365 z "},"∕":{"ha":382,"x_min":-69,"x_max":465,"o":"m 465 949 l 49 0 l -69 0 l 347 949 l 465 949 z "},"∙":{"ha":326,"x_min":67,"x_max":250,"o":"m 164 465 q 226 447 203 465 q 250 399 250 429 l 249 388 l 242 346 q 215 293 235 308 q 151 278 194 278 q 90 295 114 278 q 67 343 67 313 q 68 356 67 351 l 75 396 q 101 449 81 432 q 164 465 122 465 z "},"◊":{"ha":747,"x_min":18,"x_max":751,"o":"m 497 949 l 751 475 l 365 0 l 271 0 l 18 475 l 403 949 l 497 949 m 433 824 l 160 475 l 335 125 l 610 475 l 433 824 z "},"@":{"ha":1292,"x_min":86,"x_max":1211,"o":"m 635 965 q 1069 834 926 965 q 1211 442 1211 703 l 1211 372 q 1176 190 1211 269 q 1073 66 1140 111 q 915 21 1006 21 q 792 56 838 21 q 740 154 746 92 l 785 303 l 782 306 l 778 304 q 522 22 683 22 q 410 71 451 22 q 369 210 369 119 q 374 267 369 236 l 396 433 q 473 614 411 551 q 621 676 535 676 q 710 653 668 676 q 788 590 753 631 l 797 660 l 908 660 l 851 229 q 849 196 849 204 q 864 143 849 161 q 917 125 879 125 q 1006 157 965 125 q 1069 245 1046 189 q 1093 372 1093 301 l 1093 442 q 978 753 1093 647 q 635 860 863 860 q 317 740 431 860 q 204 400 204 621 l 204 261 q 313 -47 204 58 q 635 -151 421 -151 l 822 -151 l 822 -257 l 635 -257 q 86 261 86 -257 l 86 400 q 224 813 86 660 q 635 965 361 965 m 636 575 q 556 538 589 575 q 514 426 524 501 l 494 282 q 490 218 490 244 q 506 148 490 168 q 556 128 522 128 q 681 213 628 128 q 761 408 735 297 l 772 497 q 709 554 746 533 q 636 575 672 575 z "},"&":{"ha":750,"x_min":26,"x_max":751,"o":"m 408 926 q 583 904 478 926 l 567 801 q 400 829 475 829 q 292 796 331 829 q 247 701 253 763 l 244 671 q 281 555 238 600 q 408 510 325 510 l 535 510 l 549 611 l 663 611 l 649 510 l 751 510 l 738 414 l 635 414 l 582 32 q 428 -6 485 4 q 307 -17 371 -17 q 98 42 169 -17 q 26 199 26 100 q 32 251 26 215 l 36 275 q 106 399 49 347 q 260 472 163 451 q 162 550 196 499 q 128 664 128 601 q 129 694 128 685 l 133 725 q 217 872 146 817 q 408 926 289 926 m 386 414 q 224 372 283 414 q 153 258 164 331 l 150 239 q 149 217 149 231 q 195 120 149 156 q 331 85 242 85 q 478 104 403 85 l 521 414 l 386 414 z "},"¶":{"ha":758,"x_min":54,"x_max":731,"o":"m 296 -257 l 176 -257 l 274 433 l 215 433 q 97 474 140 433 q 54 588 54 515 q 57 624 54 599 l 81 792 q 140 910 92 871 q 274 949 188 949 l 465 949 l 296 -257 m 731 949 l 561 -257 l 442 -257 l 611 949 l 731 949 m 274 847 q 216 828 235 847 q 190 756 197 808 l 175 642 q 172 610 172 619 q 188 556 172 572 q 236 539 204 539 l 288 539 l 331 847 l 274 847 z "},"§":{"ha":581,"x_min":33,"x_max":554,"o":"m 353 965 q 432 958 386 965 q 522 938 478 950 l 506 831 q 393 867 432 858 l 343 869 q 272 847 297 869 q 243 785 247 824 l 242 772 l 240 754 q 296 667 240 692 l 432 606 q 554 432 554 550 q 553 403 554 413 l 550 381 q 497 274 543 318 q 376 215 450 231 q 458 57 458 161 q 457 26 458 36 l 454 3 q 390 -119 446 -74 q 222 -164 333 -164 q 143 -156 189 -164 q 53 -136 97 -149 l 69 -29 q 182 -65 143 -57 l 232 -68 q 313 -45 285 -68 q 344 17 340 -22 l 346 29 l 347 47 q 292 135 347 110 l 156 196 q 33 371 33 250 q 35 399 33 389 l 38 421 q 93 527 47 483 q 210 586 139 571 q 148 652 168 613 q 128 739 128 692 q 131 775 128 750 l 133 799 q 195 920 142 875 q 353 965 249 965 m 333 528 q 211 500 263 531 q 151 410 160 469 l 150 401 q 149 385 149 396 q 166 329 149 354 q 215 290 183 304 l 254 272 q 375 301 324 269 q 436 392 426 332 l 438 400 q 439 417 439 406 q 422 472 439 447 q 372 511 406 497 l 333 528 z "},"©":{"ha":897,"x_min":76,"x_max":824,"o":"m 494 856 q 740 784 656 856 q 824 590 824 713 q 821 542 824 558 l 783 268 q 673 51 764 124 q 408 -21 582 -21 q 160 51 244 -21 q 76 242 76 122 q 81 293 76 267 l 118 567 q 230 785 138 714 q 494 856 322 856 m 492 764 q 301 716 371 764 q 219 578 232 668 l 179 283 q 176 250 176 261 q 238 118 176 165 q 413 71 299 71 q 602 119 533 71 q 683 257 671 167 l 724 551 q 726 586 726 576 q 665 717 726 669 q 492 764 604 764 m 493 667 q 601 650 547 667 l 586 556 q 492 575 532 575 q 428 551 451 575 q 397 469 404 526 l 388 393 q 385 358 385 368 q 401 294 385 315 q 447 274 418 274 q 557 294 503 274 l 547 203 q 486 184 511 189 q 435 179 461 179 q 313 222 356 179 q 271 346 271 265 q 275 399 271 372 l 286 476 q 350 622 300 578 q 493 667 400 667 z "},"®":{"ha":733,"x_min":131,"x_max":676,"o":"m 422 965 q 676 749 676 965 q 674 696 676 714 l 668 650 q 585 472 651 529 q 378 415 519 415 q 192 473 254 415 q 131 631 131 531 q 135 683 131 657 l 142 731 q 220 909 158 853 q 422 965 282 965 m 421 904 q 268 866 315 904 q 210 740 221 828 l 200 668 q 197 631 197 643 q 243 517 197 557 q 382 476 289 476 q 538 515 488 476 q 600 640 588 553 l 610 714 q 613 749 613 739 q 564 863 613 822 q 421 904 515 904 m 424 857 q 510 831 481 857 q 540 764 540 806 q 539 746 540 753 l 538 738 q 463 657 529 681 l 524 531 l 456 531 q 403 647 432 596 q 356 651 378 647 l 339 531 l 279 531 l 325 850 q 424 857 388 857 m 376 801 l 364 701 l 411 699 q 476 743 467 699 l 478 750 q 467 789 482 774 q 419 804 453 804 l 376 801 z "},"™":{"ha":1074,"x_min":128,"x_max":1085,"o":"m 550 949 l 539 868 l 385 868 l 332 486 l 231 486 l 283 868 l 128 868 l 139 949 l 550 949 m 1024 486 l 928 486 l 969 775 l 843 529 l 746 529 l 690 775 l 644 486 l 549 486 l 622 949 l 732 949 q 806 625 771 801 q 965 949 893 785 l 1085 949 l 1024 486 z "},"°":{"ha":542,"x_min":88,"x_max":542,"o":"m 333 965 q 487 912 432 965 q 542 765 542 858 q 539 719 542 736 l 536 690 q 463 523 518 575 q 299 471 408 471 q 144 524 200 471 q 88 672 88 578 q 90 717 88 701 l 94 746 q 167 913 111 860 q 333 965 224 965 m 331 869 q 243 839 274 869 q 204 740 213 808 l 200 711 q 197 678 197 689 q 222 597 197 628 q 300 567 247 567 q 389 600 360 567 q 426 696 418 633 l 431 725 q 433 760 433 750 q 406 841 433 813 q 331 869 378 869 z "},"|":{"ha":313,"x_min":19,"x_max":315,"o":"m 315 1108 l 138 -156 l 19 -156 l 197 1108 l 315 1108 z "},"¦":{"ha":313,"x_min":18,"x_max":315,"o":"m 315 1113 l 239 567 l 121 567 l 197 1113 l 315 1113 m 214 386 l 136 -160 l 18 -160 l 96 386 l 214 386 z "},"†":{"ha":582,"x_min":44,"x_max":600,"o":"m 422 910 l 389 678 l 600 678 l 585 567 l 374 567 l 294 0 l 176 0 l 256 567 l 44 567 l 60 678 l 271 678 l 304 910 l 422 910 z "},"ℓ":{"ha":313,"x_min":42,"x_max":276,"o":"m 276 949 q 250 644 274 814 l 160 0 l 42 0 l 131 636 q 158 949 154 806 l 276 949 z "},"‡":{"ha":610,"x_min":15,"x_max":614,"o":"m 436 910 l 403 678 l 614 678 l 599 567 l 388 567 l 360 372 l 571 372 l 556 261 l 344 261 l 308 0 l 190 0 l 226 261 l 15 261 l 31 372 l 242 372 l 269 567 l 58 567 l 74 678 l 285 678 l 318 910 l 436 910 z "},"℮":{"ha":1326,"x_min":110,"x_max":1228,"o":"m 668 976 q 945 910 817 976 q 1151 724 1074 843 q 1228 454 1228 604 l 315 454 l 315 151 q 460 53 357 89 q 669 17 564 17 q 874 52 774 17 q 1031 153 975 88 l 1111 153 q 922 12 1033 61 q 668 -37 810 -37 q 383 27 511 -37 q 183 207 256 92 q 110 465 110 322 q 185 725 110 608 q 388 909 260 842 q 668 976 517 976 m 669 922 q 460 885 550 922 q 315 782 369 849 l 315 510 l 1022 510 l 1022 781 q 669 922 892 922 z "},"^":{"ha":688,"x_min":113,"x_max":619,"o":"m 472 949 l 619 560 l 508 560 l 408 839 l 232 560 l 113 560 l 368 949 l 472 949 z "},"̒":{"ha":0,"x_min":-179,"x_max":-42,"o":"m -174 867 q -153 929 -168 896 l -114 1011 l -42 1011 l -78 913 q -43 867 -43 900 l -44 854 l -49 826 q -67 788 -53 800 q -112 775 -82 775 q -162 788 -144 775 q -179 825 -179 801 q -178 839 -179 835 l -174 867 z "},"̓":{"ha":0,"x_min":-179,"x_max":-42,"o":"m -47 874 q -68 811 -53 844 l -107 729 l -179 729 l -143 828 q -178 874 -178 840 l -176 886 l -172 914 q -153 953 -168 940 q -108 965 -139 965 q -59 952 -76 965 q -42 915 -42 939 q -43 901 -42 906 l -47 874 z "},"̦":{"ha":0,"x_min":-179,"x_max":-42,"o":"m -47 -169 q -68 -232 -53 -199 l -107 -314 l -179 -314 l -143 -215 q -178 -169 -178 -203 l -176 -157 l -172 -129 q -153 -90 -168 -103 q -108 -78 -139 -78 q -59 -91 -76 -78 q -42 -128 -42 -104 q -43 -142 -42 -137 l -47 -169 z "},"ʼ":{"ha":221,"x_min":42,"x_max":179,"o":"m 174 874 q 153 811 168 844 l 114 729 l 42 729 l 78 828 q 43 874 43 840 l 44 886 l 49 914 q 67 953 53 940 q 113 965 82 965 q 162 952 144 965 q 179 915 179 939 q 178 901 179 906 l 174 874 z "},"ˉ":{"ha":396,"x_min":42,"x_max":354,"o":"m 42 842 l 56 946 l 354 946 l 340 842 l 42 842 z "},"´":{"ha":333,"x_min":42,"x_max":292,"o":"m 140 758 l 42 758 l 167 951 l 292 951 l 140 758 z "},"˘":{"ha":461,"x_min":42,"x_max":419,"o":"m 403 836 q 376 813 403 833 q 308 774 350 792 q 211 757 265 757 q 121 776 158 757 q 63 816 83 794 q 42 842 42 838 l 58 951 q 81 925 58 949 q 140 881 103 901 q 226 861 178 861 q 318 881 275 861 q 390 925 361 901 q 419 951 419 949 l 403 836 z "},"ˇ":{"ha":457,"x_min":42,"x_max":415,"o":"m 218 865 l 415 958 l 403 856 l 207 758 l 42 864 l 54 958 l 218 865 z "},"¸":{"ha":300,"x_min":42,"x_max":258,"o":"m 176 -57 l 179 -57 q 237 -80 215 -57 q 258 -140 258 -103 l 257 -156 l 256 -168 q 124 -274 243 -274 q 42 -261 85 -274 l 51 -185 q 114 -199 83 -199 q 148 -190 136 -199 q 163 -167 160 -181 l 164 -157 q 155 -123 167 -135 q 117 -111 143 -111 l 81 -111 l 85 -83 l 142 39 l 218 39 l 176 -57 z "},"ˆ":{"ha":457,"x_min":42,"x_max":415,"o":"m 239 851 l 42 758 l 54 858 l 250 958 l 415 851 l 403 758 l 239 851 z "},"¨":{"ha":479,"x_min":38,"x_max":442,"o":"m 193 860 q 171 816 189 831 q 115 801 153 801 q 58 819 79 801 q 42 867 38 838 l 47 906 q 126 965 56 965 q 183 948 164 965 q 199 900 203 931 l 193 860 m 432 860 q 409 816 428 831 q 354 801 390 801 q 297 819 318 801 q 281 867 276 838 l 286 906 q 310 951 290 936 q 365 965 329 965 q 422 948 403 965 q 438 900 442 931 l 432 860 z "},"˙":{"ha":243,"x_min":38,"x_max":206,"o":"m 196 857 q 172 813 192 826 q 115 799 153 799 q 58 817 78 799 q 42 865 38 835 l 47 906 q 71 951 51 936 q 128 965 90 965 q 185 947 165 965 q 201 897 206 928 l 196 857 z "},"`":{"ha":333,"x_min":42,"x_max":292,"o":"m 42 951 l 167 951 l 292 758 l 193 758 l 42 951 z "},"˝":{"ha":501,"x_min":36,"x_max":460,"o":"m 265 951 l 138 758 l 36 758 l 154 951 l 265 951 m 460 951 l 332 758 l 231 758 l 349 951 l 460 951 z "},"¯":{"ha":396,"x_min":42,"x_max":354,"o":"m 42 842 l 56 946 l 354 946 l 340 842 l 42 842 z "},"˛":{"ha":308,"x_min":42,"x_max":267,"o":"m 233 -267 q 165 -274 201 -274 q 73 -249 104 -274 q 42 -181 42 -224 q 43 -161 42 -168 l 46 -143 q 103 -34 53 -86 q 222 31 154 18 l 267 10 q 187 -43 218 -7 q 149 -121 156 -79 l 147 -135 q 146 -147 146 -139 q 158 -177 146 -168 q 199 -186 171 -186 q 244 -182 219 -186 l 233 -267 z "},"˚":{"ha":397,"x_min":42,"x_max":356,"o":"m 207 1004 q 314 970 272 1004 q 356 881 356 936 q 313 775 356 815 q 190 735 269 735 q 84 769 126 735 q 42 860 42 803 q 85 965 42 926 q 207 1004 129 1004 m 204 933 q 145 917 163 933 q 128 865 128 901 q 146 822 128 839 q 196 806 164 806 q 254 823 238 806 q 271 878 271 840 q 253 919 271 904 q 204 933 236 933 z "},"˜":{"ha":464,"x_min":42,"x_max":422,"o":"m 408 851 q 388 839 404 849 q 346 821 372 829 q 292 813 319 813 q 219 831 261 813 q 154 847 181 847 q 108 840 133 847 q 65 824 83 832 q 42 813 47 815 l 56 907 q 76 922 60 911 q 118 942 92 932 q 172 951 144 951 q 213 947 197 951 q 254 932 229 942 q 308 917 285 917 q 354 924 329 917 q 398 940 379 932 q 422 951 417 949 l 408 851 z "}," ":{"ha":250,"x_min":0,"x_max":0,"o":""}}}
